<?xml version="1.0" encoding="utf-8"?>
<!-- Generator: Adobe Illustrator 25.0.0, SVG Export Plug-In . SVG Version: 6.00 Build 0)  -->
<svg version="1.1" id="Layer_1" xmlns="http://www.w3.org/2000/svg" xmlns:xlink="http://www.w3.org/1999/xlink" x="0px" y="0px"
	 viewBox="0 0 712.1 787.6" style="enable-background:new 0 0 712.1 787.6;" xml:space="preserve">
<style type="text/css">
	.st0{fill:#8F3328;}
	.st1{fill:#FFFFFF;}
	.st2{fill:#F0A47A;}
	.st3{fill:#A2894F;}
	.st4{fill:#007141;}
	.st5{fill:#171614;}
</style>
<g>
	<path class="st0" d="M82.7,125.4c-0.9-3.6-1.6-7.4-2-11.2c0,0,0-0.1,0-0.2c-0.1-1.3-0.2-2.5-0.3-3.8c-0.1-0.9-0.1-1.9-0.1-2.9
		c0-0.5,0-0.9-0.1-1.5c0-0.2,0-0.3,0-0.5c0-0.9,0.1-1.9,0.1-2.9c0-0.6,0.1-1.3,0.1-1.9c0-0.4,0.1-0.7,0.1-1c1-13,5.2-25.2,11.6-35.8
		c21.3,5.5,36.8,22.6,43.7,32.3c1.3,1.8,4.4,3.9,1.8,7.3C135.1,106.7,122.6,129,82.7,125.4z M188,147c-12.3,10.8-17,27.2-19.6,40.2
		c14.7-1.2,28.3-6.3,39.8-14.3c-4.7-11.4-8.6-19.7-13-25.4C192.9,144.5,192.4,143.1,188,147z M139.7,90.9c1.8,2.5,3.6,2.1,4.4,0.2
		c1.7-3.8,4.7-16.4,4.7-26c0-21.8,3-30.5,8.4-40.6c-25.5,1.4-47.8,14.5-61.8,34C116.7,64.1,132.7,81.3,139.7,90.9z M199.2,137.8
		c-2.1,1.3-3.5,2.2-1,4.7c4.7,4.7,11.7,13.5,16.6,25.4c11-9.5,19.5-21.8,24.3-35.9C235,126.6,221.2,124.1,199.2,137.8z M165.5,24.5
		c-5.7,9.1-9.2,16.2-11.6,40.1c-2.3,23.9-4.3,40.7-21.5,54.8c-13.1,10.8-39.3,13.8-47.6,13.3c0,0.1,0.1,0.2,0.1,0.3
		c0.4,1,0.8,2.1,1.2,3.1c0.2,0.4,0.3,0.8,0.5,1.2c0.3,0.7,0.7,1.5,1,2.2c3.9,8.7,9.3,16.6,15.9,23.4c24.6-8.3,42.8-19.2,66.4-41.3
		c23.6-22,35.6-44.8,39.2-53.2c2.3-5.5,6.7-12.5,3.6-0.5c-3.1,11.9-14.6,37.4-37.7,59.2c-23.1,21.8-43.7,33-68.1,39.2
		c1,0.9,2,1.8,3,2.6c0.1,0,0.1,0.1,0.2,0.1c0.9,0.7,1.8,1.5,2.8,2.2c0.3,0.2,0.5,0.3,0.7,0.5c0.9,0.6,1.7,1.2,2.5,1.8
		c0.3,0.2,0.5,0.3,0.8,0.5c0.8,0.5,1.7,1.1,2.5,1.6c0.2,0.1,0.5,0.3,0.7,0.4c0.9,0.5,1.8,1,2.7,1.5c0.2,0.1,0.4,0.2,0.6,0.3
		c0.9,0.5,1.9,1,2.9,1.5c0.1,0.1,0.3,0.1,0.4,0.2c1.1,0.5,2.2,1,3.3,1.5c0.1,0,0.1,0.1,0.2,0.1c9.7,4.1,20.4,6.4,31.6,6.4
		c0.6,0,1.2,0,1.9-0.2c4.9-29.6,12.2-39.1,26.5-51.6s34.3-19,51.2-12c0-0.1,0.1-0.3,0.1-0.5c0.2-1,0.4-2.1,0.6-3.1
		c0.1-0.4,0.1-0.7,0.2-1.1c0.1-1,0.3-2.1,0.4-3.1c0.1-0.4,0.2-0.9,0.2-1.3c0.1-0.9,0.1-1.8,0.2-2.7c0-0.5,0.1-1.1,0.1-1.7
		c0.1-1,0.1-2.1,0.1-3.1c0-0.4,0-0.8,0-1.2C243.2,62.2,208.7,26.5,165.5,24.5z M539.5,631.3c4.6-15.1,12.2-14.8,9.8-20.8
		c-2.3-6-6.5-10.1-9.6-13.5c-3.1-3.4-0.7-11.4-0.8-14.8c-0.2-6.2-5.2-7.3-5.7-14.3s-1-12.7,4.2-19.7s-1.8-6.8-4.2-11.2
		c-2.4-4.4-3.6-10.3-1.6-19.5c1-4.7,0.5-6-0.8-6.5c-1.4-0.5-6.8-1.5-6.8-1.5l-8.1,16.1c1.3,3.1,1.8,7.8,1.8,10.9l-2.4,13.3
		c-1.8,3.1-5,8-4.6,12.2c0,4.4-4.4,9.1-3.9,11.2s6.2,7.6,9.6,13.3c3.4,5.8,7.8,14.3,7.8,28.6c0,14.3-4.7,33.8-5.2,36.4
		s-1.8,4.7,2.1,8.3c3.9,3.6,10.1,10.4,12.5,25.7c2.3,15.4,3.9,23.4,4.9,24.2c1.1,0.8,0.8,2.1,0.8,5c0,2.8,2.6,19.2,4.4,22.3
		c1.8,3.2,1.6-17.6,1.3-23.6c-0.3-5.9,0.3-34.5,1.3-38.7c1-4.1,2-8.8-1.6-14C541,655.5,534.8,646.4,539.5,631.3z"/>
	<path class="st1" d="M712.1,371.5c0-95.2-37-184.6-104.3-251.8C579,90.8,546,67.4,509.6,50c-34.3-16.4-70.9-27.1-108.8-31.9
		c-1.2-0.9-2.5-1.8-3.8-2.6c-12.1-7.7-24.9-11.7-38.2-11.7c-18,0-32.6,7.1-43.3,12.3c-0.9,0.5-1.9,0.9-2.8,1.4l-0.5,0.2l-0.4,0.2
		c-24.5,3.1-48.5,8.6-71.6,16.6c-1-1.2-2.1-2.3-3.2-3.4l-0.1-0.1l-0.1-0.1C216.8,11,190.2,0,162,0C103.6,0,56,47.6,56,106
		c0,19,4.9,37.2,14.2,53.2c-20.8,28-37.3,58.7-49.1,91.4C7.1,289.3,0,330,0,371.5c0,95.2,37,184.6,104.3,251.8
		c29.3,29.3,62.7,52.9,99.6,70.3c0,6.4,0.7,12.4,1.8,17.7c-1.5,2.4-2.8,5.2-3.7,8.4c-3.1,6.2-3.9,13.1-2.2,20.1
		c1.3,5.5,4.1,10.8,8.4,16c5.8,7,13.2,12.7,18.1,16.4c0.5,0.4,0.9,0.7,1.3,1c13,10,24.4,14.2,38.3,14.2c2.7,0,5.3-0.1,7.8-0.3
		c1.3-0.1,2.5-0.1,3.8-0.2c17.9-0.7,32.4-12.8,43.4-25.6l17.3-2.7c7-1.1,15.8-2.8,27-7.5l0,0l0,0c17.2-7.3,24.3-17.1,27-25.3
		c20.5-2.1,40.8-5.9,60.5-11.4c19.7-5.5,38.8-12.8,57.2-21.6c0.9,5.2,2,12.8,3,23.7c1.2,14,3.6,23.7,9.9,44c1.6,5,3.1,8.7,4.8,11.7
		c6.3,11,15.8,12.2,19.6,12.2c8.2,0,18.2-4.9,21.7-18.7c1.1-4.2,1.4-8.3,1.5-9.9c0.4-7.3,1.3-25.8,0.6-39.6l0-0.1l0-0.1
		c-1.1-18.5-0.3-31.1,0.6-34.1c1.8-5.8,3.4-15.6-2.4-25c13.4-10.1,26.3-21.3,38.3-33.3C675.1,556,712.1,466.5,712.1,371.5z
		 M545.4,649.6c0.2,0.6,0.3,1.2,0.5,1.8c3.4,10.6,2.1,11.1,3.4,12.7c1.3,1.5,6,3.6,3.4,11.9c-2.6,8.3-2.3,27.8-1.5,41.3
		c0.7,13.5-0.3,32.2-0.6,37.4c-0.2,3.2-1.1,9.8-3.3,9.8c-1.3,0-3.1-2.5-5.3-9.8c-6-19.2-8.1-27.5-9.1-39.7
		c-1.1-12.2-3.7-35.8-8.6-43.1c-1.6-2.4-3.3-4.5-4.9-6.3c-45.6,25.5-96.6,39.9-149.9,42c0.5,0.9,1,1.6,1.6,2.2
		c2.4,2.1,8.7,13.6-13.7,23.1c-9.8,4.1-17.1,5.4-22.3,6.2c-0.4-1.5-2.2-3.3-9.4-3.3c-2.8,0-6.3,0.3-10.9,0.9
		c-8.3,11.7-22.8,29.8-38.2,30.4c-3.9,0.2-7.3,0.5-10.8,0.5c-7.7,0-15.1-1.6-26.1-10.1c-7.8-6-26.8-19.5-19-30.2
		c0.8-4.6,2.8-7.2,7.8-11.4c-3.2-5-6.1-17-3.9-34.8c-39.2-16.7-75.2-40.9-106.2-71.9C54.9,545.7,20,461.3,20,371.5
		c0-80.1,28.1-153.7,75-211.6c-12.3-15.2-19-34-19-53.9c0-47.4,38.6-86,86-86c22.9,0,44.5,9,60.8,25.2c4,4.1,7.6,8.5,10.8,13.2
		c26.5-10.4,54.7-17.5,84-20.9c1.5-0.7,2.8-1.3,3.9-1.9c9.9-4.8,22.6-11.7,37.4-11.7c8.5,0,17.7,2.3,27.5,8.6c2.3,1.4,4.3,3,6,4.8
		c76,8.1,146.5,41.7,201.3,96.5c63.5,63.5,98.4,147.9,98.4,237.7c0,89.7-35,174.2-98.5,238C578.6,624.5,562.5,637.9,545.4,649.6z
		 M124.5,496.1c0-16.6-13.5-30.1-30.1-30.1c-16.6,0-30,13.5-30,30.1c0,16.6,13.4,30,30,30C110.9,526.1,124.4,512.7,124.5,496.1z
		 M94.4,511.7c-8.6,0-15.6-7-15.6-15.6c0-8.6,7-15.6,15.6-15.6c8.6,0,15.6,6.9,15.6,15.6C110,504.7,103,511.8,94.4,511.7z M75,328.5
		c16.6,0,30.1-13.4,30.1-30c0-16.6-13.5-30.1-30.1-30.1s-30,13.5-30,30.1C45,315.1,58.4,328.5,75,328.5z M75,282.9
		c8.6,0,15.6,6.9,15.6,15.6c0,8.6-6.9,15.6-15.6,15.6c-8.6,0-15.6-7-15.6-15.6C59.4,289.9,66.4,282.9,75,282.9z M116.1,267.6
		L68,239.7l6.3-12.3l45.5-1.3l-33.3-21l7.4-11.5l48.9,28.2l-9.5,14.6l-39.6,0.7l-0.1,0.1l29.9,17.3L116.1,267.6z M62.9,456.4
		c-7,0.7-15.5-3.9-18.5-18c-1.4-6.4-0.8-15.1,0.8-21.3h11c-1.6,3.5-2.8,12.3-1.9,16.4c0.6,3,2.9,6.7,6.1,6.6
		c2.5-0.1,3.1-5.4,3.2-8.1c0.3-14.5,7.5-21.7,11.5-22.6c6.6-1.4,10.1-0.3,14.6,3.7c4.7,4.2,6.7,8.7,8.1,15.1c1.2,5.5,1.7,12,0,16.9
		l-10.5,1.1c2.3-4.9,0.7-9.3-0.5-14.9c-0.8-3.9-3.3-7.6-7.2-6.8c-4.1,0.8-3.9,7.6-4.2,11.3C74.2,447.7,70.3,455.5,62.9,456.4z
		 M674.6,370.2l0.2,16.5l-49.1,0.1l-0.2-16.5L674.6,370.2z M306.8,322.4c0,1.6-4.9,8.6-8.8,13.3c-4,4.7-17.7,17.4-25,22.6
		c-3.1-1.3-5.2-4.9-7.8-9.1c6.5-10.9,10.5-25,12.5-33c0.2-1,1-1,3.6-0.5c9.3,1.9,18.9,5.7,21.3,5.2
		C304.9,320.3,306.7,320.9,306.8,322.4z M53.6,393.9L41.2,394l-0.5-46.3l12.4-0.1l0.2,16.5l38.8-0.5l0.2,12.2l-38.8,0.5L53.6,393.9z
		 M312.3,174.2c0.2,2.2-0.6,2-1.4,2c-1.1,0-3.2-0.2-4.6-1.5c-2-1.8-2.2-6.2,0.1-13.7c2.4-7.5,3.2-8.8,5.2-9.9c2.6-1.5,1,2,2.6,1.8
		c4.7-0.8,6.2,4.6,4.9,5.4C312,162.6,312.2,172,312.3,174.2z M519.2,163.9c-1.9-8.4,0.9-17.8,5.7-24.7c4.4-6.3,12.3-11.7,20.7-12.8
		c8.3-1.1,16.1,0.5,22.7,6.2c4.3,3.7,8.5,12.5,9.5,20.1l-12.8,2.1c-0.6-5.3-2-9-5.4-11.3c-8.6-5.7-18.3-4.1-23.8,3.6
		c-4.4,6.2-4.1,15.7,2.9,21.8c3.7,3.1,8,4.5,11.3,4.6l-1.4,13.6c-6.3-0.9-13.1-3.1-17.6-6.2C524,175.9,520.9,171.4,519.2,163.9z
		 M561.7,205.4l46-32.6l28,39.2l-10.1,7.2l-18.8-26.5l-7.7,5.5l17.7,25l-10.1,7.2l-17.2-25.6l-7.9,5.6l15.6,23.9l-10.1,7.2
		L561.7,205.4z M657.2,319l-1.3-20.2l15-1.1l4.2,48.6l-15,1.1l-1.3-14.5l-33.4,3.9l-1.6-13.9L657.2,319z M598.5,262.5l49.8-21.7
		l6.4,14.1l-35.2,14.7l10.4,22.5l-15.1,7L598.5,262.5z M207.2,198.5c-1.9-7.4-2.3-14.1-2.1-17c23-18.3,48.9-32.2,76.5-41.1
		c-5.3,6.2-9.6,12.4-11.3,15.9c2.1,3.4,6,9.3,9.1,10.1c8,2.1,16.6-3.1,19.5-5.7c2.5-2.2,4.2-1.8,3.9,0c-0.2,1.8-1,6.5-6,12.2
		c-4.9,5.7-9.1,13.5-9.7,18.6c-4.9,1-23.7,3.9-38.6,7.3c-14.2,3.3-9.8-1.7-7.5-8.7c1.2-3.8,2.3-8,1.7-10.5c-0.7-1.5-3-3-4.9-3.3
		c-10.1-1.6-15.8,2.1-20,5.2c-5.2-3.6-3.4,6.5-2.4,13.8c2.5,17.1,8.8,15.6,16.4,13.8c7.5-1.8,41.5-6.2,56.4-8.6
		c0.2,6.4,2.3,11.5,5.3,15.5c7.4,10.1,20.4,13.8,25.4,14.3c7,0.8,5.2,4.7,4.7,6.8c-2.8,0-13.2-3.9-19.7-5.7s-9.9,2.1-11.7,6.5
		c-1.8,4.4-4.4,14.3-1.8,33.3c2.6,19,9.1,16.9,12.7,15.1c10.4-5.2,24.9-11.4,29.1-13.3c4.2-1.8,7-5.7,8.8-7.3
		c-0.3,0.8-0.3,2.6-0.3,5.7c-6.8,7.8-15.8,21.8-17.4,26.2c-1.6,4.4-9.9,17.4-15.1,22.6c-0.8-5.2-26-9.1-29.9-10.1
		c-2.9-0.7-3.1,4.9-6.5,15.6c-3.4,10.7-10.9,21-17.1,26.8c-6.2,5.7-8.8,0.5-11.1-2.3c-2.4-2.9-13-15.9-15.1-18
		c-2.1-2.1-4.4-3.1-2.1-5.7c2.4-2.6,11.2-14,14.6-18.4c3.4-4.4,8.3-13.5,9.6-17.7c1.3-4.2,1.8-4.7,5.2,1
		c3.4,5.7,13.3,16.3,16.1,16.9c1.3,0.2,3.4,0.8,4.1-0.2c0.3-0.5,0.4-0.9,0.5-1.3c-0.1-0.3-0.2-0.5-0.4-0.6
		c-11.6-7.8-18.9-20.3-22.6-27c-0.5,1-3.1,4.4-5.5,6.8c-3.6-3.9-5.7-26.8-5.7-37.9c0-11.2-2.6-15.9-15.3-22.4
		c-4.9-2.5-8.7-5.9-11.5-9.7C210.9,210.1,208.5,203.4,207.2,198.5z M667.5,422.8c4.3,7.6,6.5,14,4.7,23.4
		c-1.1,5.5-6.1,13.4-12.6,17.4l-8-9.7c4.6-2.8,6.6-6.3,7.3-10.4c1.7-10.2-3.7-18.7-13-20.1c-8.8-1.3-16,2.7-18.6,11.6
		c-1.4,4.7-0.9,9.2,0.4,12.2l-13,4.4c-1.8-6.2-2.6-13.2-1.6-18.6c1.6-8.5,4.5-13.1,10.6-17.8c6.8-5.2,16.6-6.6,24.8-5
		C656.1,411.7,663.2,415.5,667.5,422.8z M294.2,193.3l6.2-1.4c1,5.2,2.4,5.1,1.4,5.9c-1.1,0.8-2.1-2-6.4-1.3c-4,0.7-36.7,5.8-39.1,6
		c-7.2,0.8-7.6-0.4-0.9-1.8C262.1,199.3,286.9,194.8,294.2,193.3z M234.7,198.7c-0.3,3.8-0.3,5.4,2.1,5.4c2.3,0-3.4,2.4-6.5,2.9
		c-3.1,0.5-7.9,2.3-10.4-10.9c-0.8-4.2-0.5-10.6-1-12.2c3.4-1.5,8.1-3.1,12.5-3.1c3.6,0,5.9,0,5.7,4.2
		C236.9,189.1,235,194.8,234.7,198.7z M381.8,289c-6.1,6.1-38.4,37.7-48.5,46.3c-3.1-8.3-7.3-20-10.4-26.5
		c3.1-10.6,17.4-28.1,20-31.7c2.6-3.7,5.9-2.4,10.1-2.4c4.1,0,6-3.2,6.5-4.2s1.5-1,3.6,0.3c2,1.3,14.5,9,17.9,11.4
		C384.4,284.5,384.1,286.6,381.8,289z M438.1,76.9c-7.1,7.6-31.7,15.8-50.4,21c-18.7,5.2-36.1,14.1-45.7,23.4
		c-10.3,10-20.8,17.1-34.3,27c-13.5,9.9-17.9,13.5-24.1,12.7c-8.4-1-1.8-5.4,1.2-6.7c11.7-4.9,35.9-24.7,45.5-32.8
		c9.6-8,32.2-24.6,55.8-30.6c23.7-6,37.7-13.3,44.7-21.6c2.8-3.4,4.7-4.1,7.8-1C441.7,71.5,441.5,73.3,438.1,76.9z M139.4,529
		c-3.2-1-6.2-0.8-8.8,1.5c-4.6,4.1-6.9,13.8-2.5,20.4c-4.8-2.3-14.3-3.1-18.7,0.7c-2.8,2.4-4,5.1-4.1,7.9v0.5
		c0.2,8.1,9.3,17.4,17.1,25.2l15,14.8l1.9-1.5l38-31.5l-16.2-18.8C157,543.1,147.6,531.7,139.4,529z M139.2,576.1l-7,6.7
		c-3.9-4.7-15.8-14.1-10.7-18.8c4.5-4.3,15.1,8,17.7,11.1c0.3,0.3,0.4,0.5,0.5,0.6L139.2,576.1z M150.7,565.9l-1-1.2
		c-2.4-2.8-8.7-9.5-10.5-14.8c-0.6-1.8-0.7-3.4,0-4.6c0.2-0.2,0.4-0.5,0.6-0.7c4.3-3.9,14.9,9.6,17.9,13.2l1.3,1.6L150.7,565.9z
		 M364.8,539.9c-6,1.8-21.3,2.1-28.3,1.8c1.5,3.1,3.6,11.9,3.6,20.8s-2.8,22.4-5.7,31.2c0.8,1.3,2.9,5.7,3.9,8.3
		c1.1,2.6-1.5,5.4-3.6,1c-2.1-4.4-12-20.8-13.8-23.4s-3.4-2.3-4.4-1.8s-2.1,1.5-3.1,3.1c-1,1.5-1.3,2.3,0.8,3.9l-6-3.6
		c1.3-1.5,4.4-4.6,6.5-6.2c2.1-1.5,3.6-1.8,6-0.5c2.3,1.3,6.7,7.3,8,9.1c1.4,1.9,2.4,1.4,2.4-0.2s1.5-12,0.5-28.1
		c-1.1-16.1-8.1-17.4-12.5-18.2c-19.4-3.4-32.7-15.8-37.9-20c-5.2-4.2,1.1-4.7,2.1-3.4c6.7,8.2,27.6,20.2,48.9,22.8
		c12.3,1.5,29,1.6,31.4,1.3C365.9,537.5,370.8,538.1,364.8,539.9z M598.2,371.6c0,36.6-8.1,71.3-22.7,102.4c-1.9-3.5-4.8-7-7.3-8.1
		c-9.3-4.1-13,3.6-16.1,2.6c-3.1-1.1-17.4-6.8-17.4-6.8s-3.7,4.2-5,5.5l-1.3-3.4h-2.3c4.6-5.5,5.2-7.8,3.6-8.6
		c-1.5-0.8-2.9-1.5-3.1-6.2c-0.3-4.7-4.2-10.7-6-20.3c-1.8-9.6-4.4-15.9-7.5-16.4c-1.1-3.5-2.2-7.8-3.3-12.6
		c-4.2-18.7-7.9-43.9-8.1-51.8c-0.2-9.9-7.7-1.6-7.5-3.4s1.3-6.8,2.6-18.2c1.3-11.4,6-40,5-41.6c-1.1-1.6-4.7-9.6-8.1-19.5
		c-3.4-9.8-10.4-20.5-15.1-26.2c-4.6-5.7-10.6-5-15.3-2.6c-4.7,2.3-12.2,4.4-15.1,1c-2-2.4-3.3-3.9-5-4.7c-0.8,1.5,0,4.1,0.6,5.5
		c4.5,10.4,16.7,6,22.1,3.1c5.5-2.8,6.8-2.6,10.4,2.9c3.7,5.5,16.7,35.9,21.1,45.5c-0.5,6.3-8.3,56.9-9.1,60.6
		c-0.7,3.6,2.4,6.2,4.7,3.6c6.6-7.2,5.2-0.7,5.2,4.2c0,5,7.9,42.4,9.9,49.1c1.3,4.4,3.4,8-1,10.1c-4.4,2-19.5,7.2-25.7,8.8
		c-6.3,1.5-8.3,0.5-10.7-5c-3.9-9-16.1-30-19.2-35c-3.2-4.9-1.4-10.6,1.8-18.7c3.1-8.1,6-13.3,6-15.1s-4.2-22.3-7-30.9
		c-2.9-8.5-3.7-6.4-5.2-2.8c-1.5,3.6-6.7,17.4-10.1,25.4c-3.4,8.1-18.2,21.6-25.7,0.3c-7.5-21.4,3.1-53.6,7.8-67.1
		c4.6-13.5,14.6-35.1,21-43.7c0.4-0.5,1-1.1,1.5-1.6c1.5-2.5,1.6-3.5-2.3-4.9c-5.2-1.8-14.5-7-18.7-10.9c-0.8-2.3-0.4-6.6,2.2-11.8
		c2.6-5.2,10.8-11.8,11.6-15.7c0.5-2.3,5.5-8,6.8-14c3.2-14.7-4.9-22.6-12.2-26.3c0-1.2,0.2-4.6,0-8.1
		c36.6,11.6,70.2,31.9,98.2,59.8C573,245.8,598.2,306.8,598.2,371.6z M649.2,505c-1.3,6.4-3.7,13.2-8.2,17.8l-11.1-7.4
		c3.1-2.3,5-8.3,6.3-12.2c1-2.9,1.1-7.6-1.6-9.1c-1.7-0.9-5-0.6-8.8,3c-7.5,7.1-20.5,15.5-25.7,16c-6.7,0.6-8.8-3.1-9.9-9.1
		c-0.8-4.6,0-11.9,2.1-18.1c1.8-5.3,6.3-10.7,10.2-14l8.1,3.6c-4.4,2.9-7.3,7.5-9.1,13c-1.2,3.7-2.3,9.4,1.4,10.7
		c4.2,1.4,13.3-7.7,15.9-10.2c4.5-4.3,13.8-11.9,20.7-10.1C644,480,652.4,489.5,649.2,505z M366.7,717.6c0.7,1.8,0,3.4-2.1,4.7
		c-9,5.6-20,9.6-25.7,9.6c0-1.2-0.3-3.3-1.3-8c9.3-2.3,19.1-7.2,24.4-9.6C364.9,712.9,365.9,715.8,366.7,717.6z M526.5,457.4
		c-10.2,9.4-24.2,13-32.5,13.3c-5.5,0.2-8.3,0.3-10.4-5.2c-2.1-5.4-6-21-7.3-26.2c-1.3-5.2-3-7,3.9-8.1c6.8-1,23.3-8.1,28.1-10.9
		c7.2-4.1,7.2,3.4,8.8,10.7C518.6,437.9,523.6,454.1,526.5,457.4z M505.6,562.2c-30,23.6-65.6,40.2-104.5,47.6
		c5.1-12.4,11.1-33.2,13.3-43c2.9-12.7,16.1-42.9,19.5-51.2c3.3-8.3,9.8-37.1,11.1-52.2c0.2-1.2,1.9-1.5,2.9-9.3s-7-20.8-13.8-34.8
		c-2.9-6-4.3-12.7-4.6-19.6c-0.5-9,0.9-18.3,2.8-26.9c3.4-15.1,9.4-29.6,12.5-39.5c3.1-9.9,5.5-6.2,6-3.4s0.5,4.4,2.8,11.4
		c2.4,7,0.3,13.3-2.3,20.3c-2.6,7-7.8,18.9-2.6,28c1.4,2.5,3.3,6,5.5,10c5.8,10.8,13.4,25.2,16.8,31.6c0.1,2.9,0.4,6,1,9.4
		c1.1,6.9,3.4,19.5,7,28.2c2.1,5.2,4.2,5.5,14.9,9c0.8,2.8,2.1,6.4,4.7,9.3c-7.3,3.1-8.3,9.6-8.1,14.8c0.3,5.2-0.2,11.2-2.3,17.7
		c-1.3,4.2-1,9.1,1.6,11.7c2.6,2.6,6,8,6.5,12.2c1.8,14.3,4.2,11.7,7.8,13.5C506.4,558.2,506.5,560.2,505.6,562.2z M240.4,653.4
		c-2.1,5.2-4.7,16.1-4.4,22.6c0.7,19.2,4.6,28.8,8,30.9l-6.2,2.3c-0.5-2.1-1.5-5.7-3.6-17.4c-2.1-11.7-0.8-19.7,0-25.2
		c0.8-5.4,3.4-12.7,4.2-14.5C239.2,650.3,242.5,648.2,240.4,653.4z M304.7,626.8c-7.6-2.3-25-10.3-29.9-12.7
		c-4.9-2.3-13.2-4.9-19.2-4.9c-2.3-5-2.1-13.6-0.5-16.7c1.5-3.1,1.5-6.2,2.8-5.4c1.3,0.8,3.1,2.1,3.1,2.1c3.4,2.1,11.4,4.4,25.2-1.3
		c13.7-5.7,29-1.8,31.4,8.1c2.4,9.9,2.5,22.6-1.8,28.1C312.2,628.7,308.8,628.3,304.7,626.8z M275.9,634.5l0.1,0.9l-3.5,0.2
		c-1.9,0-13.6,0.9-16.1,0c-2.4-0.9-4-3.7-2.3-4.9c2-1.4,6.1-0.5,10.1-0.5s8.3-0.2,9.3,0.5C274.4,631.3,275.6,631.1,275.9,634.5z
		 M219.1,571.8c-12.3-8.4-23.9-18-34.6-28.8c-45.9-45.8-71.1-106.7-71.1-171.5c0-64.6,25.2-125.5,70.6-171.3c0.4,4.6,2,9,3,11.5
		c0.5,1.2,1.4,2.7,2.4,4.4c4,6.2,10.6,14.5,8.3,14.1c-2.8-0.5-6.7,5.2-13.2,11.4c-6.5,6.2-7.3,9.3-6.5,14.3s-0.3,6.8-3.1,10.7
		c-5.6,7.8-2.8,12.5,4.2,23.4c7,10.9,16.4,8.8,18.2,10.1c1.8,1.3-1.6,6,7,15.1c7,7.4,13.8,6.5,17.7,5.2c2.2-0.7-3.6,5.5-6.2,8.3
		c2.1,1,8.8,3.9,15.3,12.7s18.9,21,20.5,20c1.5-1,4.1-2.8,5.7-4.4c1.6-1.6,3.4-2.1,5.2-1c1.9,1,3.7,3.1,5.5,4.9c1,1,0.8,2.1-0.8,3.4
		c-18.2,14-29.4,25.7-36.5,35.4c-5.9,7.9-8.9,14.6-10.8,20.1c-4.1,12.2,1,12.1,4.7,10.9c5.5-1.8,10.7,14.3,15.1,18.5
		c-7.7,16.7,13.1,53,22.3,85c5.9,20.3,12.3,35.4,22.9,48.1c-19.9,8-21.8-1.1-24.1-4.2c-8.3-10.9-16.6-11.2-27.3-7
		C230.7,568.3,224.4,566.1,219.1,571.8z M314.5,695.4c0.8,0.8,0.4,1.3-0.4,1.8s-5.3,1.7-7.4,1.8c-2.3-2-5.6-5.4-6.2-6.1
		c-1.3-1.2,6.1-2.8,7.7-2.8C310,691.3,313.3,694.2,314.5,695.4z M343,687.2c-2.4,1.1-10.9,3.7-16.4-0.2c-2.8-2.1-6.2-5-2.8-5.2
		c3.4-0.2-4.1-29.6-6.2-34.8c-2.1-5.2-8.1-11.7-2.1-11.7c3.3,0,9.5,1.4,11.4,7.5c1.6,5,11.7,6.2,16.1,6c4.4-0.3,3.6,2.1,3.4,4.7
		s-1,10.4-1,13.5s0.8,14,1.3,16.1C347.2,685.1,345.4,686.2,343,687.2z M277.5,762c-5.2,0.8-17.1,0.8-24.9-3.4
		c-7.7-4.1-20.1-11.8-28-23.1c-1.8-2.6,0-5.4,2.1-3.1c6.5,7.3,18.7,18.5,27.8,22.4c9.1,3.9,15.1,5.2,23.1,4.4
		C284.1,758.6,282.8,761.3,277.5,762z M229,582.8c-2.8,3.1-6.2,17.4-5.7,27.6c-1.8-0.6-5.7-1.3-7.8-0.8c-0.7-5.8-0.2-23.7,2.4-29.4
		c2.6-5.7,5.2-7.2,8.3-6.2c1.4,0.4,2.1,1.8,3.1,3.6S230.7,581,229,582.8z"/>
	<path class="st2" d="M295.2,190.6c-3.6-0.1-4-2.7-1.6-6.6c2.4-3.9,4.6-7.6,7.7-9.9c0.5,1.7,1.5,3.8,3.1,4.7
		c-2.1,2.2-4.8,4.9-4.3,10.4L295.2,190.6z M194.5,242.4c1.6-3.6,6.2-3.6,8.3-4.7c1-0.5,0.5-2.3-2.1-3.6c-2.6-1.3-3.1,1-4.4,1.8
		c-1.3,0.8-2.8,0.5-4.9,3.4C189.3,242.1,193.5,244.7,194.5,242.4z M235.7,256.3c-0.8-11.7,1.3-19.2-6-23.4c-7.3-4.2-24-14.1-26-33.3
		c-0.7-7.3-0.2-18.5-7.5-12.5c-7.2,5.9-7.2,10.1-8,14.5c-0.8,4.4,2.9,10.3,6,14.5c3.1,4.1,6.7,13.2,9.6,15.6c2.8,2.3,4.7,4.2,7,4.4
		c2.3,0.2,11.7,0.2,14,1c2.3,0.8,3.6,3.7-2.1,3.7c-5.7,0-14.5,1.6-18.4,2.1c-3.9,0.5-7.5,0.8-9.3,8.6c-1.8,7.8-4.4,16.9-4.7,19.8
		c-0.2,2.9-1.8,4.4-1.8,6c0,1.6,3.1,9.1,10.1,1.6c6.9-7.5,9.8-15.1,11.1-18.7c1.4-3.6,2.9-3.1,1.6,2.6c-1.3,5.7-1.7,20,1,24.9
		c3,5.3,8.9,10.8,16.4,7c1.5-0.8,4.1-2.1,6.2-1.8c2.1,0.2-0.4,3.8-2.2,5.4c-1.8,1.5-7.8,8.2-18.3-1.3c-2.6-2.4-6.2-7.6-7-14.1
		c-0.2-2-3.1-2.8-4.4-1s-8.3,8.3-13.3,3.6c-5-4.6-7-7.2-4.2-17.1c0.5-1.8,1.5-3.8,0.3-4.2c-3.3-1-5.9,2.9-7.5,6
		c-1.5,3.1-3.3,6.5,1.6,13.5c5,7.1,8.1,11.2,16.7,10.7c4.2-0.3,7.8-3.4,9.1-5.2s1.6,1.3-0.5,4.4c-2.1,3.1-3.7,10.3,0.2,15.3
		c3.9,5,12,9.1,22.6,2.9c10.7-6.3,15.1-13.8,16.9-17.2c1.8-3.3,1.8-4.9,0-7C243.1,285.5,237.1,275.6,235.7,256.3z M188.5,259
		c0.5-1.6,1.5-6,2.6-9.3c0.3-0.8-1.6-2.4-2.6-3.4s-2.6,1-3.6,2.1c-3.3,3.3-3.4,6.8-1.3,11.2C185.7,263.9,188,260.6,188.5,259z
		 M570.3,493.9c4.7-14.3-0.3-17.4-6.8-21.1c-6.5-3.6-8.6,1.5-7.4,4.5c0.4,1.1,0.7,2.3,1,3.9c1.2,5.2-2.5,4.5-0.7,16
		c1,6.2-0.2,18.4-2.6,28.6c-2.3,10.1,4.7,2.6,6.5-3.4C562.3,516.5,565.7,508.2,570.3,493.9z M580.7,489.7c-0.5-1.6-1.8-5-2.4-3.4
		c-0.5,1.6-6,21.6-9.1,27.6s-2.9,8.1-2.9,9.9s-3.1,7-5.5,10.9c-2.3,3.9,0.6,5.5,4.2,1.8c3.6-3.6,13.2-17.9,16.3-23.1
		C584.6,508.2,582.6,495.3,580.7,489.7z M436,160.5c5.4,9.9-5.2,23.6-9.1,27.3c-3.9,3.7-7.8,8.8-7.5,11.5c0.7,7-1.3,9.3-5,16.1
		c-7.1,13.2-17.9,16.9-22.1,17.9s-8,2.1-15.1,5.4c1.1-6.8-0.5-8.6-2.1-6c-8.9,14.9-9.3,17.9-23.6,19.7c-14.3,1.8-19-5.7-22.1-12.7
		c-3.1-7,0.8-3.8,4.4-3.4c4.2,0.5,6-1,2.9-2.6c-3.1-1.6-5.2-3.1-19.2-7.8c-14-4.7-21-13.3-23.9-21.6c-2.9-8.3,3.1-4.2,6-2.4
		c2.9,1.8,12.7,7.5,23.4,13.3c10.7,5.7,13.6,8.1,21.7,6c8-2.1,19.3-14.1,23.7-18.5c1.4-1.4,3-3.4,4.2-2.1c3,3.3,5.2,2.1,5.2-2.1
		c0-6.8-10.9-9.4-17.9-9.9s-12.2-1.3-14.5-3.4c-2.4-2.1-6.5-9.6-9.9-9.6c-5.7,0-1,4.2,0.8,6c5.6,5.6,2.8,10.9-5.5,10.1
		c-8.3-0.8-11.9,1.3-14.5,3.1c-2.6,1.8-9.1,3.9-12.5-1.6c-3.4-5.5,0.3-8.3,3.9-10.1c3.7-1.8,10.4-1.6,19-11.7
		c8.6-10.1,9.3-19.2,6.5-25.7c-2.9-6.5-5.5-3.4-5-2.6c0.5,0.8,3.4,4.4,3.6,10.7c0.3,6.2-7,14-8.6,15.6c-1.6,1.6-2,0.8-1.6-1.6
		c2.1-10.4,0.5-16.6-5.5-19.8c5.7-4.2,30.2-24.7,36.9-29.4c6.7-4.7,13.5-9.1,20.7-9.9c2.8,4.7,9,8.3,12.7,7.5c5-1.1,5.9-1,6.5,3.4
		c0.6,4.2,0.8,9.6,4.3,11.5c5.3,2.9,4.9,3,4,7.3c-0.7,3.3-1.3,4.2-1,8.6c0.9,14.8-13.8,34.6-17.9,40c-4.1,5.5-2.8,7.8,1,6.8
		c3.9-1,15.3,0.5,16.1-0.8c1.5-2.5,4.7-3.6,7.8-2.6c0.2-12.5,5.2-20.5,9.6-27.8C421.5,155.6,430.6,150.7,436,160.5z M388.5,165.7
		c4.4-4.4-2.2-1.4-4,0c-1.8,1.5-8.4,6.4-12.9,6.4c-5.4,0-8.8-6.2-10.4-5.9c-3,0.7-5.3-2.2-3.6-1.8c1.7,0.4,10-1.2,20-3.1
		c10-2,14.4-6.5,16.1-7.9c1.7-1.4,2.7-3.5,2.4-4.2c-0.4-0.7-2.5-0.8-4.8,1.1c-5.8,4.8-17.4,8.4-23.9,9.4c-6.5,0.9-10.8,1.4-10.9-0.7
		c-0.1-2.1,0.8-10.7,1.2-12.9c0.4-2.2,0.3-3.1,2.2-2.6c1.9,0.5,1.3-3,3.4-2.1c2.1,0.9,1.2-1.8,3.3-1c2.1,0.8,2.1-2.7,3.4-1
		c1.3,1.7,3-1.3,3.7,0.1c0.8,1.4,3.3-0.7,3.7,0.3c0.8,1.9,1.6-0.7,2.5,1.6c0.7,1.7,1.8-1.7,2.7,0.8c0.9,2.5,1.1-0.2,2.3,2.1
		c1.2,2.4,2.2,0.5,2.5-1.6c0.3-2.1,1.5-1.8,2.5-2.1c1-0.2,0.2-2.2-1.3-4c-6.4-7.5-11.9-10.3-14.2-11.6c-2.2-1.3-4.7-2.1-4.9-0.8
		c-0.3,1.3-1.3,2.4-4.1,0.7c-3.9-2.5-4.7-0.9-5.3,1.6c-0.7,2.5-2.2,1.3-5.3,0.8c-3.1-0.6-2.5,2.5-4,2.1c-4.9-1.2-3.4,1.3-4.4,1.8
		s-5.3-0.7-5.1,1.2c0.8,5.4-2.5,2.2-4.3,4c-1.8,1.8-1,3.4,0.5,4.4c1.6,1,6,5.4,10.9,9.1c5.3-4.3,5.9-1.3,5.2,2.3
		c-0.2,1.4-0.4,2.5-1.3,7.7c-0.9,5.2,0.9,7,5.8,10.4c5,3.4,12.1,4.9,16.8,4.8C379.4,175,384.1,170.2,388.5,165.7z M426.2,162.6
		c-3.4,1.6-7,5.1-11.7,12c-5.2,7.5,1.3,7.4,1.6,8.2c0.7,1.7,2.9,2.5,3.6,0.7c0.6-1.3,0.3,2.8,2.1,2.1c1.4-0.6,2.1-6.8,2.4-10.4
		c0.2-3.7,1.9-4.4,4.9-6.5C435.2,164.2,429.5,161,426.2,162.6z M340.2,217.8c6.8-0.6,12.6-4,22.6-14.5c4.1-4.4,7.4-6.6,3.5-8.4
		c-2.6-1.2-5.3-1.6-8.8-1.6s-11-0.5-13.8-2.9c-1.4,3.3-5.4,6.4-14.4,5.3c-4.6-0.5-9-0.6-9.8,3c-0.5,2.5-2.6,2.3-5.4,2.2
		c-3-0.1-6.3-0.9-6.4,0.1c-0.1,1,12.7,8.7,17,10.7C328.9,213.7,335.2,218.3,340.2,217.8z M552.3,493.4c-1.3-3,0.1-13.5-0.7-15.6
		c-0.8-2.1-1.3-5.2-7.8-7.3c-6.5-2-8.3-2.6-12.7,1.8c-4.4,4.4-6,6.2-8.1,8.3c-2.1,2.1-7.3,0.3-2.8-3.9c4.4-4.2,8.6-8.3,9.9-9.6
		l-1.3-3.4h-2.3c-7,7-16.4,11.2-22.6,12.5c-2.4,0.5-6.8,0.8-3.6,4.9c0.8,1,1,3.9,2.9,2.9c1.8-1,4.7-5.7,7.3-3.6
		c2.6,2.1-0.5,7-3.6,9.3c-3.1,2.4-6.5,4.7-8.8,6c-2.4,1.3-3.6,2.6-3.4,6.8s0.5,11.7-1.8,17.4c-2.3,5.7-1,7.3,1,11.1
		c2.1,3.9,5.5,7.3,6.5,13.5s1.6,7.8,5.7,7.3c4.2-0.5,5.7-2.4,7.3-5l0.5-9.1c-1.6-4.6-2.3-11.4-5-15.3c2.1-5.7,8.9-21.1,20.5-25.7
		c1.3-0.6,2.1-1.8,1.6-2.9c-0.5-1,1.6-1.8,2.6,1.8c1,3.6,2.9,14,2.9,14c0.5,2.3-0.5,4.2-1,7.3c-0.5,3.1-1.8,10.1-1,13.8
		c0.8,3.6,2.1,6.2,9.3,4.7c3.6-0.8,3.4-1.8,4.4-5c1-3.1,3.9-11.9,5-16.9C554.2,508.6,553.3,496.5,552.3,493.4z"/>
	<path class="st3" d="M300.5,129.8c0.7,0.9,1.5,1.9,2.2,2.8C301.9,131.7,301.2,130.8,300.5,129.8z M307.4,136.7
		c3.2-3.4,6.2-6.4,9-9.3c-0.1-1.5-0.4-3-1.2-4.6c-1.2-2.3-2.8-2.7-3.5-0.9c-0.7,1.8-1.9,7.9-6,9.6c-1.3,0.6-2.3,0.9-3,1.1
		C304.1,134.1,305.6,135.4,307.4,136.7z M317.1,99.9c-0.3,2.3,0.5,2.8,1.9,1.3c1.4-1.6-0.2-6.2,4.5-8.1c4.8-1.8,5.5,1.8,5.2,4.3
		c-0.2,2.5,0,4.8,2.5,5.9c2.5,1,5.3,5.1-0.1,7.4c-5.5,2.4-8.4,2.8-10.7,3.5c-2.2,0.7-1.7,2.9,0.1,4.3c1.1,0.9,1.9,1.7,2.6,2.3
		c-2.2,2-4.4,4.2-6.7,6.5c2.3-2.3,4.5-4.4,6.6-6.4c7.1-6.4,13.5-11.5,20.9-16.5c4-2.7,7.7-5.1,11.5-7.4c0.6-2.4,0.8-4.6-1.2-5.4
		c-1.4-0.5-2.6,1.7-3.5,3.3c-0.9,1.6-2.9,4.2-6.3,3.8c-3.4-0.4-4.2-1.6-5.1-4.4c-0.9-2.8-3-3.8-5.4-3.8c-2.5,0-4.2-3-1.6-6.1
		c2.6-3.1,5.2-1.7,7.3-1.7c2.1,0,3.1-2.2,1.4-3.4c-1.4-1-3.8-3.6-4.2-5.6c-7.4,4.9-18,12.4-27.2,20.7l-0.1,0.1
		c1.7,0.1,3.7,0.6,4.6,1C315.3,96,317.4,97.6,317.1,99.9z M350.5,68.8c0.5-1.3,1-2.7,1.5-3.8c-1.9,1-3.8,2-5.5,3
		C347.6,69.6,349.2,72.2,350.5,68.8z M383.2,277.8c0.2,0.1,0.2,0.2,0.3,0.2c14.3,10.2,17.9,4.7,20-0.3c2.1-4.9,6.7-19.6,8-27.3
		c0.8-4.4,1.8-9.1,1.3-13.3c-8.5-0.5-18.7,1.2-28.4,5c1.7,1,3.5,3.3,7.1,2.1c5-1.7,6.6,3.5,4.3,5c-2.4,1.4-3.1,5.1,1.3,2.3
		c4.4-2.7,8.3,1.2,6.5,4.1c-1.8,2.8-4.2,0.6-3.6,4.7c0.5,4-0.4,7.7-4,8.3c-3.7,0.7-4.4-4.8-6.1-4.4s0.4,9.6-0.4,9.8
		C387,274.3,384.5,276.4,383.2,277.8z M372.4,248.1c-13.3,8.2-13.8,15.1-10.7,17.7c2.8,2.3,8.5,3.4,18.2,9.8c0.1-3.4,1.3-8.5,1.9-10
		c0.8-2-1.3-3.7-3.5-2.2c-2.2,1.4-5.5,3.5-7.7-0.3c-2.2-3.8,2.5-4.2,2.7-6c0.2-1.8-1.6-2.1-0.7-5.1c0.9-3,4.1-2.1,6.5-0.5
		c2.7,1.8,1.9-2.5,1.6-4.2c-0.3-1.3-0.6-2.5-0.2-3.5C377.8,245.1,375,246.5,372.4,248.1z M359.1,70.2c-0.4,0.9-1.4,6.1,0.9,3
		c2.4-3.1,3.3-4.3,5.7-5.1c2.5-0.8,5.2-0.7,5.3,3c0.1,3.6-1.6,3.4-2.1,5.7c-0.5,2.4,0,2.2,1.2,2.7s1.9,2.1,1,4.6
		c-0.9,2.5-4.8,2.7-8.3,2.3c-3.5-0.4-3.9,0.1-2.7,1.3c1,0.9,2.3,3,2.7,5.2c8.4-4.1,18.7-7.5,34.5-10.8c0.4-3,0.6-8.5,0-10.8
		c-0.8-2.7-3.3,1.6-6.5,5.4c-3.2,3.9-7.9,1.6-8.4-0.4c-0.5-1.9-1.4-4.2-4.3-7.9c-2.9-3.8,2.7-9,5.1-9.6c2.4-0.7,5.3-1.2,6.1-1.8
		c0.7-0.6-0.5-4.4-1.1-7.3c-9.3,2.7-20.7,7.5-30.8,12.5l-0.1,0.1C360.5,63.4,359.5,69.4,359.1,70.2z M354.5,268.9
		c1-2.6,3.1-7.8,4.6-11.9c-3.6,0-9,0.5-11.9,0.5c-2.9,0-1.8,4.2-2.4,6.8c-0.6,3.1,5,0.5,4.2,4.4
		C348.7,270.5,353.5,271.5,354.5,268.9z M324.6,691.6c-3.9-3.4-10.1-7.8-11.1-8.6s-3.4,0.3-5.1,1c0,0,1.3,0.9,2.7,2.1
		c2.2,1.8,7.3,5.7,9.3,7.8c2.1,2.1,1.3,4.4,0.8,6s2.3-0.2,5.4-2.1C329.8,696.1,328.5,695,324.6,691.6z M444.1,452.8
		c0.3,6.8-5.3,4.6-12.7,3.9c-5.1-0.5-15,1.5-26.3,4.6c0-2.7-0.6-7.1-1.8-11.4c-1.5-5.7,2.1-4.2,5.5-1c3.4,3.1,11.4,7.5,17.1,2.3
		s-1.3-10.9-2.1-15.1s4.2-6.8,1.6-13.5c-4.5-11.8-11.1,2.3-15.1,6.2c-3.9,3.9-3.3-2.7,0.3-6.2c1.8-1.8,9.9-6.8,5.2-12.2
		c-4.7-5.5-11.4-2.4-14.8,0c-3.4,2.3-6,5.2-11.2,3.6c-5.2-1.6-9.6-2.1-12.7,5.4c-3.1,7.5,2.8,5.5,7.8,10.9c4.9,5.4,1.8,5.7-2.1,4.4
		c-3.9-1.3-5.7-6.2-11.4-5.4c-5.7,0.8-5.7,9.9-3.9,12.2s5.5,3.6,2.9,8c-2.6,4.4,1.3,9.6,6,11.7c4.7,2.1,11.7-6.2,14.3-9.6
		c2.6-3.4,5.2-2.6,4.7,0c-0.4,2.3-1.7,8.1-1.8,13c-11.8,3.8-23.9,8.4-33,12.7c-21.3,10.1-36.4,19.9-43.9,25.7
		c-2.4,1.8-4.2,4.2-8.9-1.3c-4.7-5.5-11.7-14.3-14.5-14.3c-2.9,0-4.7,1-6.8-12.2c-2.1-13.3,0.5-34.6,14.4-57
		c5.4-8.6,18.3-32.3,24-49.8c4.2-12.6,6.8-20.7,10.1-26.3c10.4-4.9,11-0.7,9.3,2.2c-1.8,3.1-7,12-4.7,14.8c2.4,2.9,5-2.8,7-0.8
		c2.1,2.1,6.8,4.4,6.8,2.8c0-1.6,0.5-4.7,1.3-8.8c0.8-4.2,2.6-6.5,4.4-3.1c1.8,3.4,4.4,6.2,10.9,4.7c6.5-1.6,5.7-8.3,4.4-13.3
		c-1.3-4.9,3.4-7.3,5.7-8.6s8.3-6,3.9-10.1c-4.4-4.2-8.3,1.8-12.2,2.6c-3.9,0.8-2.4-2.6,5.7-8.8c7-5.4,1.1-10.8-3.1-12.6
		c3.5-3.5,6.2-6.4,7.2-7.9c4.4-6.2,5.7-10.7,10.1-7.8c4.4,2.8,14.2,5.1,20.5-17.7c2.1-7.5,3.6-20,6-25.4c1.8-4.2,2.6-5.2,1.8-6.5
		c-0.8-1.3-5.2-7-6.2-7s-4.2,0.8-0.5-4.4c1.8-2.6,3.1-3.4,4.2-4.8c1-1.5,3.1-0.5,6.9,1.4c3.8,2,10.7,5.5,13.3,6.8
		c-4.8,7.7-18.8,33.3-22.5,42.4c-3.7,9.1-16.8,41.6-9.9,68.1c0,0.2,0.1,0.4,0.2,0.7c-3.5,3.7-8.6,6.2-12.7,5.3
		c-4.7-1-10.7-1.8-11.4,7.8c-0.2,3.6,3.4,6.5,6.8,7.8c3.4,1.3,2.9,3.6-0.8,2.4c-3.6-1.3-6.5-2.1-9.1,5.4c-2.6,7.5,2,8.6,4.4,9.1
		c2.4,0.5,4.2,1,3.6,4.2c-0.5,3.1-2.1,12.2,3.9,12.9c6,0.8,11.1-6.4,12.9-10.1c1.8-3.6,3.9-7.3,4.4-3.1s-0.2,6.2-2.3,10.9
		c-2.1,4.6-2.1,6.7,1,6.4c3.1-0.2,8.3,0,9.9-3.6c1.6-3.6,3.9-10.6,4.2-15.5c0.2-3.1,2.9-3.4,4.8-3.3c-1,9-1.6,18.3-1,25.6
		c1,11.4,2.4,15.8,9.1,27C440.2,441.4,443.8,446.1,444.1,452.8z M348.3,460.9c-2.6-1.8-4.7-5-1.3-9.6c3.4-4.7,5.7-8.8,0.3-10.4
		c-5.4-1.6-9.1,4.2-11.9,7.3c-2.9,3.1-4.4,1.3,0.5-7.3c4.9-8.6-7.3-10.4-11.9-7c-4.7,3.4-10.6,5.2-16.1,5
		c-14.3-0.8-10.4,10.4-7.2,12.7c3.1,2.3,2.6,5.4-0.8,5.4c-3.4,0-6.5-5.4-10.1,1c-3.7,6.5-0.3,11.2,3.4,14.8c3.6,3.6-1.3,8.8,6,12.7
		c7.3,3.9,9.9-4.7,12.7-9.9c2.8-5.2,4.2,5.2,5.5,10.6c1.3,5.5,6.8,8.6,7.3,6c0.5-2.6,3.1-3.1,6.5-3.1c3.4,0,0.3-4.2-2.6-8.6
		c-2.8-4.4-2.6-8,1.6-6.5c4.2,1.6,5.2,4.4,11.5,2.6C355.7,472.5,350.9,462.7,348.3,460.9z M375.5,400.9c-1.6-2.4-3.6-5-1-9.3
		c2.6-4.4,3.4-8.3,1.3-10.7c-8.6-9.6-12.7,3.1-14.5,6.2c-1.8,3.1-4.9,5.7-3.9,1.6c1-4.2,4.7-4.4,6-12.2c1.8-10.7-10.4-7.8-13.2-5.5
		c-2.9,2.3-7,4.7-13.8,1.8c-6.8-2.8-9.8,2.4-9.3,7.3c0.5,5.2,3.6,8,7.5,10.4c3.9,2.3,2.4,4.6-0.5,2.3c-2.8-2.3-7-3.4-9.3-2.3
		c-7.7,3.4-9.1,9.1-5.4,13.5c3.6,4.4,2.8,7,0.2,11.9c-2.6,5,2.9,9.9,8.3,9.6c5.5-0.2,10.4-8.3,13.5-12.2c3.1-3.9,5.2-1.3,6,1.6
		c0.8,2.9-3.9,9.4-6.8,12.5c-2.9,3.1,0.8,4.9,2.1,6c1.3,1,4.2,1,4.7,0.3c4.8-7.2,9.6-14.3,10.1-19.3c0,0,5.7,1.3,10.4,1
		C380.7,414.7,377.1,403.2,375.5,400.9z M311.3,704.8c-2.4,0.5-4.4,0-5.9-1.4c-1.4-1.5-10.1-8.7-11.7-10.3c-1.6-1.6-1.3-3.5,0-4.7
		c-2.9,0.2-4.7,0.1-6.8,0.4c-2.1,0.3-5.1,0.3-2.7,2.5c2.3,2.2,14,13.2,16.1,15.2c2.1,1.9,4.3,1.9,6.2,1.6
		C308.5,707.6,313.6,704.3,311.3,704.8z M300.5,282.9c1.6-0.6,5.9-2.7,10.4-5c0.1-2.5,0.2-6.8,0.5-8.8c0.4-3-2.7-1.8-4.1-0.3
		c-1.3,1.6-3.7,4.2-6.1,3.8c-2.4-0.4-3.9-4.5-3.5-8.4c0.4-3.9-4.2-5.5-1.3-10.7c2.9-5.2,5.2,1.3,7.7,0.8s1.2-1.8,0-5.9
		c-1.2-4,3.7-5.2,6.8-2.4c1.9,1.8,2.8-2.2,5.7-1.7c2.8,0.5,4.5,2.5,2.8,5.3c-1.3,2.2-2.2,7.4,0.3,4.7c2.5-2.7,4.9-4.4,7.3-2.6
		c2.4,1.8,0.8,5.6,0.1,7.5c-0.6,2,4.2,4.3,0.8,6.6c-3.4,2.3-7.1-1.7-9.1-1.2c-1.9,0.5-2.3,2.8,0.3,4.7c1.7,1.2,3.6,2.1,4.9,2.6
		c5.4-1.9,11.7-5.4,13.7-6.6l3.4,0.2c0.3-4.4,0-7.3-1.6-8.1c-5.5-2.7-10.9-8.8-14.5-15.8c0,0,0.2-1-1.3-1c-1.6,0-7.3-0.5-16.9-3.9
		c-9.6-3.4-10.9-1.3-12.2,2.8c-1.3,4.2-2.4,11.7-2.6,24.2C291.6,276.4,297.1,284.2,300.5,282.9z M284.9,486.6
		c-0.8-2.9-3.7-18.2-2.8-28.8c1-12.2,6.8-25.6,10.9-33.3c4-7.4,16.1-30.9,19-37.1c2.8-6.3,8-13.5,9.3-19.2s6.2-19,8.3-25.2
		c-0.5-5.2-3.9-15.7-9.3-28c-2.1-4.7-2.8-1.1-8.6,8c-2.9,4.6-10.2,13.2-19.5,22.9c6.4,1.2,20.2,4.6,12,11.4c-8.8,7.3-5,6.8-1,6.2
		c3.9-0.5,10.4,1.8,5.4,10.7c-4.9,8.8-8.3,15.1-13,17.9s-11.4,2.6-13-4.2c-1.6-6.8-6,0-6.2,4.4c-0.3,4.4-0.8,11.9-0.3,14.5l-9.9-0.5
		c-0.2-4.2-0.2-12.5,0.5-16.3c0.8-3.9,0.5-8.6-5.4-6.8c-4,1.2-6.7,0.2-8-0.6c-11.6,10.3-17.4,17.4-21.4,23.7c3,2.7,7.7,4.7,12.7,2.6
		c5.7-2.4,15.1,0.5,9.3,9.3c-5.7,8.8-5.5,13.3,0.2,7.8c5.7-5.4,14.9-14.8,17.7-4.9c1.8,6.5-4.2,8.6-3.9,13.7
		c0.2,5.2,5.4,10.4-1.8,16.7c-7.3,6.2-10.4-4.4-15.3-2.9c-3,1-3.5,3.8-3.3,6.3c6.4,9.1,15.8,21.9,19.1,27.5c5.2,8.6,5.2,19,7.3,17.4
		c2.1-1.6,7-6.3,8.6-7.5C284.1,491,285.7,489.5,284.9,486.6z M303.2,116c0.1-2.6-1.8-3.5-3.1-3.9c-0.9-0.3-2.8-2.1-3.5-3.7
		c-1.3,1.7-2.4,3.4-3.3,5.1c0.6,1.7,1.1,3.4,1.7,4.9C298.1,118.3,303.1,118.1,303.2,116z M276.8,636l-2.3,3.4
		c-2.1,1.4-8.7,2.2-15.7,1.8s-8.7-4.2-8.8-6.9c-0.1-1.8,0.1-3.4,0.1-6s-0.7-4.9,0.9-6c1.6-1,1.2,1.6,2.2,1.6
		c4.4,0,19.7,1.4,23.4,1.9c3.6,0.5,3.4-1.7,2.6-4c-0.2-0.8-1.3-0.5-1.7,0.5c-0.4,1.1-3.8,0.7-3.8,0.7s-6.8-0.7-11.2-0.9
		c-4.4-0.2-7.8-0.8-10.5-1.3c-2.7-0.6-6.1-0.4-5.8,0.9c0.2,1.3,1,17.5,1.1,19.9c0.1,2.4,0.3,3.3,1.5,3.3c3,0,23.1,0.2,27.8,0.2
		s4.4-0.5,4.6-3.1C281.3,639.4,278,636,276.8,636z"/>
	<path class="st4" d="M403.4,449.8c1.2,4.3,1.8,8.7,1.8,11.4c-3.7,1.1-7.6,2.3-11.6,3.5c0.1-4.9,1.4-10.7,1.8-13
		c0.5-2.6-2.1-3.4-4.7,0c-2.6,3.4-9.6,11.7-14.3,9.6c-4.7-2.1-8.6-7.3-6-11.7c2.6-4.4-1.1-5.7-2.9-8c-1.8-2.3-1.8-11.4,3.9-12.2
		c5.7-0.8,7.5,4.1,11.4,5.4c3.9,1.3,7,1,2.1-4.4c-5-5.4-10.9-3.4-7.8-10.9c3.1-7.5,7.5-7,12.7-5.4c5.2,1.6,7.8-1.3,11.2-3.6
		c3.4-2.4,10.1-5.5,14.8,0c4.7,5.4-3.4,10.4-5.2,12.2c-3.6,3.5-4.2,10.1-0.3,6.2c4-3.9,10.6-18,15.1-6.2c2.6,6.7-2.4,9.3-1.6,13.5
		c0.8,4.2,7.8,9.9,2.1,15.1s-13.7,0.8-17.1-2.3C405.4,445.8,401.8,444.2,403.4,449.8z M382.3,76.4c0.5,1.9,5.2,4.3,8.4,0.4
		c3.3-3.9,5.7-8.2,6.5-5.4c0.7,2.3,0.5,7.8,0,10.8c0.7-0.1,1.4-0.3,2-0.4c1.5-14.5-2.1-24.9-7.3-33c-1.2,0.3-2.5,0.6-3.8,1
		c0.6,3,1.8,6.8,1.1,7.3c-0.8,0.7-3.7,1.2-6.1,1.8c-2.3,0.6-7.9,5.8-5.1,9.6C380.9,72.3,381.8,74.5,382.3,76.4z M282.6,387.9
		c1.6,6.7,8.3,7,13,4.2c4.7-2.9,8.1-9.1,13-17.9c5-8.8-1.6-11.2-5.4-10.7c-3.9,0.5-7.8,1,1-6.2c8.2-6.8-5.6-10.2-12-11.4
		c-10.5,11-23.3,23.4-34.8,33.2c-1.5,1.3-2.8,2.5-4.1,3.6c1.3,0.8,4,1.8,8,0.5c6-1.8,6.2,2.8,5.4,6.8c-0.8,3.8-0.8,12.2-0.5,16.3
		l9.9,0.5c-0.5-2.6,0-10.1,0.3-14.5C276.6,387.9,281.1,381.1,282.6,387.9z M342.6,433.4c1.3,1,4.2,1,4.7,0.3
		c4.8-7.2,9.6-14.3,10.1-19.3c0,0,5.7,1.3,10.4,1c13-0.7,9.3-12.2,7.8-14.5c-1.6-2.4-3.6-5-1-9.3c2.6-4.4,3.4-8.3,1.3-10.7
		c-8.6-9.6-12.7,3.1-14.5,6.2c-1.8,3.1-4.9,5.7-3.9,1.6c1-4.2,4.7-4.4,6-12.2c1.8-10.7-10.4-7.8-13.2-5.5c-2.9,2.3-7,4.7-13.8,1.8
		c-6.9-2.8-10,2.4-9.5,7.3c0.5,5.2,3.6,8,7.5,10.4c3.9,2.3,2.4,4.6-0.5,2.3c-2.8-2.3-7-3.4-9.3-2.3c-7.7,3.4-9.1,9.1-5.4,13.5
		c3.6,4.4,2.8,7,0.2,11.9c-2.6,5,2.9,9.9,8.3,9.6c5.5-0.2,10.4-8.3,13.5-12.2c3.1-3.9,5.2-1.3,6,1.6c0.8,2.9-3.9,9.4-6.8,12.5
		C337.6,430.5,341.3,432.3,342.6,433.4z M300.2,112.1c1.3,0.4,3.3,1.3,3.1,3.9c-0.1,2.2-5.1,2.4-8.3,2.4c2.3,6.2,4.6,10.6,7.9,14.1
		c0.7-0.2,1.7-0.5,3-1.1c4.1-1.7,5.3-7.8,6-9.6s2.3-1.4,3.5,0.9c0.8,1.7,1.1,3.2,1.2,4.6c2.3-2.3,4.5-4.4,6.7-6.5
		c-0.7-0.6-1.5-1.3-2.7-2.2c-1.8-1.4-2.3-3.6-0.1-4.3c2.2-0.7,5.2-1.1,10.7-3.5c5.4-2.4,2.6-6.4,0.1-7.4s-2.7-3.4-2.5-5.9
		c0.3-2.5-0.4-6.1-5.2-4.3c-4.8,1.8-3.1,6.5-4.5,8.1c-1.4,1.6-2.2,1-1.9-1.3c0.2-2.4-1.8-3.9-3-4.4c-0.9-0.4-2.9-0.9-4.6-1
		c-5,4.5-9.5,9.2-12.9,13.8C297.5,110,299.3,111.8,300.2,112.1z M373.3,256.9c-0.3,1.8-5,2.2-2.7,6c2.2,3.8,5.5,1.7,7.7,0.3
		c2.2-1.5,4.3,0.2,3.5,2.2c-0.6,1.5-1.8,6.6-1.9,10c1,0.7,2.1,1.4,3.3,2.2c1.3-1.2,3.8-3.3,6.3-3.8c0.8-0.1-1.3-9.3,0.4-9.8
		c1.7-0.4,2.5,5.1,6.1,4.4c3.6-0.7,4.5-4.3,4-8.3c-0.5-4.1,1.8-1.8,3.6-4.7c1.8-2.9-2.1-6.8-6.5-4.1c-4.4,2.7-3.6-0.9-1.3-2.3
		c2.3-1.5,0.7-6.6-4.3-5c-3.6,1.2-5.4-1.1-7.1-2.1c-1.3,0.5-2.6,1.1-3.9,1.7c-0.3,1-0.1,2.2,0.2,3.5c0.3,1.7,1.1,6-1.6,4.2
		c-2.4-1.6-5.6-2.5-6.5,0.5C371.7,254.8,373.5,255.1,373.3,256.9z M333.9,90.6c2.4,0,4.5,1,5.4,3.8c0.9,2.8,1.7,4,5.1,4.4
		c3.4,0.4,5.4-2.2,6.3-3.8c0.9-1.6,2.1-3.8,3.5-3.3c2.1,0.8,1.8,3,1.2,5.4c2.3-1.5,4.8-2.8,7.5-4.1c-0.4-2.2-1.7-4.3-2.7-5.2
		c-1.2-1.2-0.8-1.7,2.7-1.3s7.4,0.1,8.2-2.3c0.9-2.5,0.2-4.1-1-4.6s-1.7-0.3-1.2-2.7c0.5-2.3,2.2-2.1,2.1-5.7
		c-0.1-3.7-2.8-3.8-5.3-3c-2.4,0.8-3.3,2-5.7,5.1c-2.3,3.1-1.3-2.1-0.9-3c0.4-0.8,1.3-6.8-1.9-7.9c-1.8,0.9-3.6,1.8-5.3,2.7
		c-0.6,1.1-1,2.5-1.5,3.8c-1.3,3.4-2.9,0.8-4-0.8c-3.4,1.9-6.5,3.7-8.8,5.2c-0.3,0.2-0.6,0.3-0.8,0.5c0.4,2,2.8,4.6,4.2,5.6
		c1.7,1.2,0.7,3.4-1.4,3.4c-2.1,0-4.7-1.4-7.3,1.7C329.7,87.6,331.4,90.6,333.9,90.6z M405.4,341c-3.3,3.7-8.4,6.2-12.5,5.3
		c-4.7-1-10.7-1.8-11.4,7.8c-0.2,3.6,3.4,6.5,6.8,7.8c3.4,1.3,2.9,3.6-0.8,2.4c-3.6-1.3-6.5-2.1-9.1,5.4c-2.6,7.5,2,8.6,4.4,9.1
		c2.4,0.5,4.2,1,3.6,4.2c-0.5,3.1-2.1,12.2,3.9,12.9c6,0.8,11.1-6.4,12.9-10.1c1.8-3.6,3.9-7.3,4.4-3.1s-0.2,6.2-2.3,10.9
		c-2.1,4.6-2.1,6.7,1,6.4c3.1-0.2,8.3,0,9.9-3.6c1.6-3.6,3.9-10.6,4.2-15.5c0.2-3.1,2.9-3.4,4.8-3.3c0.6-5.3,1.4-10.4,2.1-14.9
		C417.1,364.2,408.4,351.8,405.4,341z M377.6,315.9c7-5.4,1.1-10.8-3.1-12.6c-11.2,11.3-31,29.5-35.3,33.7c-1.6,1.5-2.9,3.2-4.2,5.3
		c10.5-4.9,11.1-0.7,9.4,2.2c-1.8,3.1-7,12-4.7,14.8c2.4,2.9,5-2.8,7-0.8c2.1,2.1,6.8,4.4,6.8,2.8c0-1.6,0.5-4.7,1.3-8.8
		c0.8-4.2,2.6-6.5,4.4-3.1c1.8,3.4,4.4,6.2,10.9,4.7c6.5-1.6,5.7-8.3,4.4-13.3c-1.3-4.9,3.4-7.3,5.7-8.6s8.3-6,3.9-10.1
		c-4.4-4.2-8.3,1.8-12.2,2.6C368,325.5,369.5,322.1,377.6,315.9z M310.9,278.2c4.8-2.3,9.9-4.7,12.7-5.7c0.1,0,0.2-0.1,0.3-0.1
		c-1.3-0.5-3.1-1.4-4.9-2.6c-2.5-2.1-2.2-4.4-0.2-4.9s5.7,3.5,9.1,1.2c3.4-2.4-1.4-4.7-0.8-6.6c0.7-1.9,2.3-5.7-0.1-7.5
		c-2.4-1.8-4.8-0.1-7.3,2.6s-1.6-2.5-0.3-4.7c1.7-2.8,0-4.8-2.8-5.3c-2.9-0.5-3.8,3.5-5.7,1.7c-3.1-2.9-7.9-1.7-6.8,2.4
		c1.2,4,2.5,5.3,0,5.9c-2.5,0.5-4.8-6-7.7-0.8c-2.8,5.2,1.7,6.8,1.3,10.7c-0.4,3.9,1.1,8.1,3.5,8.4c2.4,0.4,4.8-2.2,6.1-3.8
		c1.3-1.6,4.4-2.7,4.1,0.3C311.1,271.4,311,275.7,310.9,278.2z M289.3,132.2c1.3-1.3,2.7-2.5,4-3.7C285.7,116,275.6,96,284.4,69
		c2.5-7.6,7.9-14,14.1-19.2c-20.7,3.6-40.7,9.3-60.1,16.7c6.2,12.1,9.5,25.5,9.5,39.5c0,18.5-5.7,36.2-16.5,50.8
		C249.4,146.3,268.8,138,289.3,132.2z M306.3,631.9c-7-1.3-15.7-5.1-21.9-7.7c0,5,0.9,17.8,1.9,26.4c-2.6,0.3-6.3,0.5-10.7,0.5
		c0.5,9.3,1.6,26.2,1,34c12.5-0.5,29.9-4.4,37.8-7.8c1,0.3,2.7,1.4,5.3,2.4c1-8.3-4.3-25.6-7.3-33.5
		C310.4,640.9,308.5,637.3,306.3,631.9z M348.5,460.7c-2.6-1.8-4.7-5-1.3-9.6c3.4-4.7,5.7-8.8,0.3-10.4c-5.4-1.6-9.1,4.2-11.9,7.3
		c-2.9,3.1-4.4,1.3,0.5-7.3c4.9-8.6-7.3-10.4-11.9-7c-4.7,3.4-10.6,5.2-16.1,5c-14.6-0.7-10.7,10.5-7.6,12.9
		c3.1,2.3,2.6,5.4-0.8,5.4c-3.4,0-6.5-5.4-10.1,1c-3.7,6.5-0.3,11.2,3.4,14.8c3.6,3.6-1.3,8.8,6,12.7c7.3,3.9,9.9-4.7,12.7-9.9
		s4.2,5.2,5.5,10.6c1.3,5.5,6.8,8.6,7.3,6c0.5-2.6,3.1-3.1,6.5-3.1c3.4,0,0.3-4.2-2.6-8.6c-2.8-4.4-2.6-8,1.6-6.5
		c4.2,1.6,5.2,4.4,11.5,2.6C355.9,472.4,351.1,462.5,348.5,460.7z M501.7,572.7c-30.8,22.4-66,37.2-103.5,43.6
		c-0.4,0.8-0.9,1.5-1.3,2c-5.5,7-16.1,17.2-23.9,21.3s-16.9,7.2-21.8,8.8c-1,8.3-2.3,26.9-0.2,33.3c0.8,2.3,10.3,8,13.7,14.3
		c0.3,0.6,0.6,1.2,0.9,1.9c53-1.5,102.9-15.7,146.7-39.7c-0.3-0.2-0.5-0.4-0.7-0.6c-2.3-2.3,2.8-9.6,5.2-23.1
		c2.3-13.6,2.6-36.2-7.3-48.9C504.7,579.4,502.4,575.5,501.7,572.7z M75,314.1c8.6,0,15.6-7,15.6-15.6c0-8.6-6.9-15.6-15.6-15.6
		c-8.6,0-15.6,6.9-15.6,15.6C59.4,307.1,66.4,314.2,75,314.1z M271.9,421.2c-2.8-9.9-11.9-0.5-17.7,4.9c-5.7,5.5-6,1-0.2-7.8
		c5.7-8.8-3.6-11.7-9.3-9.3c-5.1,2.1-9.8,0-12.7-2.6c-2.2,3.5-3.8,6.8-5.5,10.1c-4.9,10.1-1.6,10.4,2.1,10.4
		c3.6,0,11.4,15.3,12.5,18.2c0.3,1,3,4.9,6.5,9.9c-0.2-2.5,0.2-5.4,3.3-6.3c4.9-1.6,8,9.1,15.3,2.9c7.3-6.3,2.1-11.5,1.8-16.7
		S273.7,427.6,271.9,421.2z M682.6,371.6c0,109.6-54.1,206.7-137.1,266c1.2-8.1,4.2-15.9,6.2-18.8c3.1-4.6,3.3-11.9-3.7-17.9
		c-7-5.9-6.5-7.5-5.2-12.7c1.3-5.2-2.6-12.3-6-21.6c-3.4-9.3,1.8-11.7,3.4-14c1.5-2.4,7.8-11.5,9.6-13.3c1.8-1.8,2-3.6,4.4-0.2
		c2.3,3.3,7.8,3.6,10.1,1.5c6.2-5.5,18.4-23.9,20-27.5c1.6-3.6,1.8-9.3,1.3-14.5c-1-9.9-3.9-17.5-6.1-18.6
		c16.1-33.3,24.7-70.1,24.7-108.2c0-66.4-25.8-128.8-72.7-175.7c-29-29.1-64-50.1-102.2-61.8c0-0.2,0-0.4,0-0.6
		c-1-20.3-7-29.9-9.3-33.8c-2.4-4-4.2-5.8-2.1-6.8c2.1-1.1,9.1-3.9,18.7-9.9c9.6-6,9.6-12.2,6-17.2c-3.6-5-9.3-6.3-13.5,0.5
		c-4.2,6.7-12,9.1-22.1,13.5c-0.6-8.1-1.5-21-7.1-32.2c70.6,9.4,135.8,41.5,187,92.7C648.6,202.2,682.5,284.2,682.6,371.6z
		 M655.9,298.8l1.3,20.2l-33.4,3.9l1.6,13.9l33.4-3.9l1.3,14.5l15-1.1l-4.2-48.6L655.9,298.8z M565.3,155l12.7-2.2
		c-1-7.6-5.2-16.4-9.5-20.1c-6.6-5.7-14.4-7.3-22.7-6.2c-8.4,1.1-16.3,6.5-20.7,12.8c-4.8,6.9-7.6,16.4-5.7,24.7
		c1.7,7.5,4.8,12,11.8,17c4.5,3.2,11.2,5.3,17.6,6.2l1.4-13.6c-3.3-0.1-7.7-1.5-11.3-4.6c-7-6.1-7.4-15.7-2.9-21.8
		c5.5-7.7,15.2-9.3,23.8-3.6C563.2,145.8,564.6,149.5,565.3,155z M597.3,234.1l-15.7-23.8l7.9-5.6l17.2,25.6l10.1-7.2l-17.7-25
		l7.7-5.5l18.8,26.5l10.1-7.2l-28-39.2l-46,32.6l25.4,36.1L597.3,234.1z M614.9,299.1l15.1-7l-10.4-22.5l35.2-14.7l-6.4-14.1
		l-49.8,21.7L614.9,299.1z M639.5,478.8c-6.9-1.8-16.2,5.8-20.7,10.1c-2.6,2.4-11.7,11.6-15.9,10.2c-3.8-1.2-2.6-7-1.4-10.7
		c1.9-5.5,4.7-10.1,9.1-13l-8.1-3.6c-4,3.3-8.4,8.6-10.2,14c-2.1,6.2-3,13.5-2.1,18.1c1.1,6,3.2,9.7,9.9,9.1
		c5.2-0.5,18.2-8.9,25.7-16c3.8-3.6,7.1-3.9,8.8-3c2.8,1.5,2.6,6.2,1.6,9.1c-1.3,4-3.2,10-6.3,12.2l11.1,7.4
		c4.5-4.5,6.8-11.4,8.2-17.8C652.4,489.5,644,480,639.5,478.8z M667.4,423c-4.2-7.4-11.4-11.2-18.9-12.7c-8.2-1.5-18-0.2-24.8,5
		c-6.1,4.6-9,9.3-10.6,17.8c-1,5.3-0.2,12.4,1.6,18.6l13-4.4c-1.3-3.1-1.8-7.6-0.4-12.2c2.6-8.9,9.8-12.9,18.6-11.6
		c9.4,1.3,14.7,9.9,13,20.1c-0.7,4.1-2.7,7.6-7.3,10.4l8,9.7c6.6-4,11.6-11.9,12.6-17.4C674,436.9,671.8,430.5,667.4,423z
		 M674.8,386.7l-0.2-16.5l-49.1,0.1l0.2,16.5L674.8,386.7z M121.6,564c-5.1,4.7,6.8,14.1,10.7,18.8l7-6.7l0.5-0.4
		c-0.2-0.2-0.3-0.4-0.5-0.6C136.6,572,126,559.8,121.6,564z M224.2,614.5c7.2,9,11.6,26.5,8.8,34c-3.2,8.3-5.3,15.9-6.8,22.9
		c-37.3-16.1-71.5-39.3-101.1-68.9c-61.6-61.7-95.6-143.8-95.6-231c0-75.3,25.3-146.7,71.8-204.4c16.2,16.1,37.7,25,60.6,25
		c8.7,0,17.3-1.3,25.4-3.8c-0.7,0.8-1.2,1.8-1.7,2.7c-47.9,45.3-77.9,109.5-77.9,180.5c0,66.3,25.8,128.7,72.7,175.6
		c11,11,22.9,20.8,35.4,29.4c-6.2,11.4-4.8,27.3-3.9,36.1C215.3,612.9,220.2,613.4,224.2,614.5z M68.1,239.7l48.1,27.9l7.4-13.1
		l-29.9-17.3l0.1-0.1l39.6-0.7l9.5-14.6L94,193.6l-7.4,11.5l33.3,21l-45.5,1.3L68.1,239.7z M45,298.6c0,16.6,13.4,30,30,30
		s30.1-13.4,30.1-30c0-16.6-13.5-30.1-30.1-30.1S45,281.9,45,298.6z M41.2,394l12.5-0.1l-0.2-17.6l38.8-0.5l-0.2-12.2l-38.8,0.5
		l-0.2-16.5l-12.4,0.1L41.2,394z M62.9,456.2c7.4-0.8,11.3-8.6,12.5-20.5c0.4-3.7,0.2-10.5,4.2-11.3c3.8-0.8,6.4,3,7.2,6.8
		c1.2,5.7,2.8,10.1,0.5,14.9l10.5-1.1c1.7-4.9,1.2-11.4,0-16.9c-1.3-6.4-3.4-10.9-8.1-15.1c-4.6-4-8-5.1-14.6-3.7
		c-4.1,0.9-11.3,8.1-11.5,22.6c-0.1,2.7-0.7,8-3.2,8.1c-3.2,0.2-5.5-3.6-6.1-6.6c-0.8-4,0.3-12.9,1.9-16.4h-11
		c-1.6,6.2-2.2,14.9-0.8,21.3C47.4,452.5,56,457.1,62.9,456.2z M94.3,526.1c16.6,0,30.1-13.4,30.1-30c0-16.6-13.5-30.1-30.1-30.1
		c-16.6,0-30,13.5-30,30.1C64.3,512.7,77.8,526.1,94.3,526.1z M177.4,567.1l-16.2-18.8c-4-5.2-13.4-16.6-21.8-19.3
		c-3.2-1-6.2-0.8-8.8,1.5c-4.6,4.1-6.9,13.8-2.5,20.4c-4.8-2.3-14.3-3.1-18.7,0.7c-2.8,2.4-4,5.1-4.1,7.9v0.5
		c0.2,8.1,9.3,17.4,17.1,25.2l15,14.8l1.9-1.5L177.4,567.1z M94.4,480.5c-8.6,0-15.6,6.9-15.6,15.6c0,8.6,7,15.6,15.6,15.6
		c8.6,0,15.6-7,15.6-15.6C110,487.5,103,480.5,94.4,480.5z M139.9,544.9c-0.3,0.2-0.4,0.5-0.6,0.7c-0.7,1.2-0.6,2.8,0,4.6
		c1.9,5.2,8.2,12,10.5,14.8l1,1.2l8.2-6.7l-1.3-1.6C154.7,554.3,144.1,540.7,139.9,544.9z"/>
	<path class="st5" d="M692.1,371.5c0-89.8-34.9-174.2-98.4-237.7C538.9,79,468.4,45.4,392.4,37.3c-1.7-1.8-3.7-3.4-6-4.8
		c-26.9-17.3-49.3-4.4-64.9,3.1c-1.1,0.6-2.4,1.2-3.9,1.9c-29.3,3.4-57.5,10.5-84,20.9c-3.2-4.7-6.8-9.1-10.8-13.2
		C206.5,29,184.9,20,162,20c-47.4,0-86,38.6-86,86c0,19.9,6.7,38.7,19,53.9c-46.9,57.9-75,131.5-75,211.6
		c0,89.8,34.9,174.2,98.4,237.7c31,31,67,55.2,106.2,71.9c-2.2,17.8,0.7,29.8,3.9,34.8c-5,4.2-7,6.8-7.8,11.4
		c-7.8,10.7,11.2,24.2,19,30.2c16,12.3,24.4,10.1,36.9,9.6c15.4-0.6,29.9-18.7,38.2-30.4c16.6-2.3,19.7,0.3,20.3,2.4
		c5.2-0.8,12.5-2.1,22.3-6.2c22.4-9.5,16.1-21,13.7-23.1c-0.6-0.6-1.1-1.3-1.6-2.2c53.3-2.1,104.3-16.5,149.9-42
		c1.6,1.8,3.3,3.9,4.9,6.3c4.9,7.3,7.5,30.9,8.6,43.1c1,12.2,3.1,20.5,9.1,39.7s8.3,5.2,8.6,0s1.3-23.9,0.6-37.4
		c-0.8-13.5-1.1-33,1.5-41.3s-2.1-10.4-3.4-11.9c-1.3-1.6,0-2.1-3.4-12.7c-0.2-0.6-0.3-1.2-0.5-1.8c17.1-11.7,33.2-25.1,48.2-40.1
		C657.1,545.7,692.1,461.2,692.1,371.5z M309.5,94.5l0.1-0.1c9.2-8.3,19.8-15.9,27.2-20.7c0.2-0.2,0.5-0.3,0.8-0.5
		c2.3-1.5,5.4-3.3,8.8-5.2c1.7-0.9,3.6-2,5.5-2.9c1.7-0.9,3.5-1.8,5.3-2.7l0.1-0.1c10-5,21.4-9.8,30.8-12.5c1.3-0.3,2.6-0.7,3.8-1
		c5.2,8.1,8.8,18.5,7.5,33c-0.7,0.1-1.4,0.3-2,0.4c-15.8,3.3-26,6.7-34.5,10.8c-2.7,1.3-5.2,2.6-7.5,4.1c-3.8,2.3-7.5,4.7-11.5,7.4
		c-7.3,5-13.8,10.1-20.7,16.5c-2.1,2-4.4,4.2-6.6,6.4c-2.9,2.8-5.9,5.9-9,9.3c-1.8-1.3-3.3-2.6-4.7-4.1c-0.8-0.9-1.5-1.8-2.2-2.8
		c-2.2-3-3.9-6.7-5.7-11.4c-0.6-1.5-1.1-3.2-1.7-4.9c0.9-1.7,2-3.4,3.3-5.1C300,103.7,304.6,99,309.5,94.5z M556.6,497.3
		c-1.8-11.5,1.9-10.8,0.7-16c-0.4-1.6-0.6-2.8-1-3.9c-1.2-3,0.9-8.2,7.4-4.5c6.5,3.6,11.4,6.8,6.8,21.1c-4.7,14.3-8.1,22.6-9.9,28.6
		c-1.8,6-8.8,13.5-6.5,3.4C556.3,515.7,557.6,503.5,556.6,497.3z M561,534.7c2.4-3.9,5.5-9.1,5.5-10.9s-0.2-3.9,2.9-9.9
		c3.1-6,8.6-26,9.1-27.6c0.5-1.6,1.8,1.8,2.4,3.4c1.9,5.6,3.9,18.5,0.8,23.6c-3.1,5.2-12.7,19.5-16.3,23.1
		C561.5,540.1,558.6,538.6,561,534.7z M575.8,473.9c-2-3.5-4.8-7-7.3-8.1c-9.3-4.1-13,3.7-16.1,2.6c-3.1-1-17.4-6.8-17.4-6.8
		s-3.7,4.2-5,5.5s-5.5,5.5-9.9,9.6c-4.4,4.2,0.8,6,2.8,3.9c2.1-2.1,3.6-3.9,8.1-8.3c4.4-4.4,6.2-3.9,12.7-1.8c6.5,2.1,7,5.2,7.8,7.3
		c0.8,2.1-0.7,12.6,0.4,15.7c1,3.1,1.9,15.2,0.9,20.1c-1,5-3.9,13.8-5,16.9c-1,3.1-0.8,4.2-4.4,5c-7.3,1.6-8.6-1-9.3-4.7
		c-0.8-3.6,0.5-10.7,1-13.8c0.5-3.1,1.6-5,1-7.3c0,0-1.8-10.4-2.9-14c-1-3.6-3.1-2.9-2.6-1.8c0.5,1-0.2,2.3-1.6,2.9
		c-11.6,4.6-18.4,20-20.5,25.7c2.6,3.9,3.4,10.7,5,15.3l-0.5,9.1c-1.6,2.6-3.1,4.4-7.3,5c-4.2,0.5-4.7-1-5.7-7.3
		c-1-6.2-4.4-9.6-6.5-13.5c-2.1-3.9-3.4-5.4-1-11.1c2.4-5.7,2.1-13.3,1.8-17.4c-0.2-4.2,1-5.5,3.4-6.8c2.3-1.3,5.7-3.6,8.8-6
		c3.1-2.4,6.2-7.3,3.6-9.3c-2.6-2.1-5.5,2.6-7.3,3.6s-2.1-1.8-2.9-2.9c-3.1-4.2,1.3-4.4,3.6-4.9c6.2-1.3,15.6-5.5,22.6-12.5
		c4.7-5.4,5.2-7.8,3.6-8.6c-1.6-0.8-2.9-1.6-3.1-6.2c-0.3-4.7-4.2-10.7-6-20.3c-1.8-9.6-4.4-15.9-7.5-16.4
		c-1.1-3.5-2.2-7.8-3.3-12.6c-4.3-18.7-8-43.9-8.1-51.8c-0.3-9.9-7.8-1.6-7.5-3.4c0.2-1.8,1.3-6.8,2.6-18.2c1.3-11.4,6-40,5-41.6
		c-1-1.6-4.7-9.6-8.1-19.5c-3.4-9.9-10.4-20.5-15.1-26.2s-10.7-5-15.3-2.6c-4.7,2.3-12.2,4.4-15.1,1c-2-2.3-3.3-3.9-5-4.7
		c-0.8,1.5,0,4.1,0.6,5.5c4.5,10.4,16.7,6,22.1,3.1c5.5-2.8,6.8-2.6,10.4,2.9c3.6,5.5,16.6,35.9,21.1,45.5
		c-0.5,6.2-8.3,56.9-9.1,60.6c-0.8,3.6,2.4,6.2,4.7,3.6c6.5-7.2,5.2-0.8,5.2,4.2s7.9,42.4,9.9,49.1c1.3,4.4,3.4,8.1-1,10.1
		c-4.4,2.1-19.5,7.3-25.7,8.8c-6.2,1.6-8.3,0.5-10.7-5c-3.9-9.1-16.1-30.1-19.2-35c-3.1-4.9-1.3-10.6,1.8-18.7
		c3.1-8.1,6-13.3,6-15.1c0-1.8-4.2-22.3-7-30.9c-2.9-8.6-3.7-6.5-5.2-2.8c-1.6,3.6-6.8,17.4-10.1,25.4c-3.4,8.1-18.2,21.6-25.7,0.3
		c-7.5-21.3,3.1-53.5,7.8-67.1c4.7-13.5,14.6-35.1,21-43.7c0.4-0.5,0.9-1.1,1.5-1.6c1.5-2.5,1.7-3.5-2.3-4.9
		c-5.2-1.8-14.5-7-18.7-10.9c-0.8-2.3-0.3-6.6,2.2-11.8c2.6-5.2,10.8-11.8,11.6-15.7c0.4-2.3,5.4-8.1,6.8-14
		c3.2-14.7-5-22.6-12.2-26.3c0-1.2,0.2-4.6,0.3-8.2c36.6,11.6,70.2,31.9,98.2,59.8c45.8,45.8,71,106.8,71,171.6
		C598.6,408.1,590.4,442.8,575.8,473.9z M340.2,562.5c0,8.8-2.8,22.3-5.7,31.2c0.8,1.3,2.9,5.7,3.9,8.3s-1.6,5.5-3.6,1
		c-2.1-4.4-11.9-20.8-13.8-23.4c-1.8-2.6-3.4-2.4-4.4-1.8c-1,0.5-2.1,1.6-3.1,3.1s-1.3,2.3,0.8,3.9l-6-3.6c1.3-1.6,4.4-4.7,6.5-6.2
		c2.1-1.6,3.6-1.8,6-0.5c2.3,1.3,6.8,7.3,8,9.1c1.3,1.8,2.4,1.3,2.4-0.2c0-1.6,1.6-11.9,0.5-28.1c-1-16.1-8.1-17.4-12.5-18.2
		c-19.5-3.4-32.8-15.9-37.9-20c-5.2-4.2,1-4.7,2.1-3.4c6.6,8.3,27.6,20.3,48.9,22.8c12.3,1.5,29,1.6,31.4,1.3
		c2.3-0.2,7.3,0.3,1.3,2.1s-21.3,2.1-28.3,1.8C338.1,544.8,340.2,553.6,340.2,562.5z M275.5,651.1c4.4,0,8.1-0.2,10.7-0.5
		c-1-8.6-1.9-21.4-1.9-26.4c6.2,2.6,14.9,6.4,21.9,7.7c2.3,5.4,4.2,9,6.2,14.3c3,7.9,8.3,25.2,7.3,33.5c-2.6-1-4.3-2.1-5.3-2.4
		c-7.9,3.4-25.3,7.3-37.8,7.8C277.1,677.4,276.1,660.5,275.5,651.1z M236.1,676.1c0.8,19.2,4.7,28.8,8,30.9l-6.2,2.3
		c-0.5-2.1-1.6-5.7-3.6-17.4c-2.1-11.7-0.8-19.7,0-25.2c0.8-5.4,3.4-12.7,4.2-14.5s4.2-3.9,2.1,1.3
		C238.4,658.7,235.8,669.6,236.1,676.1z M233.5,571.1c-2.7-2.7-9.1-5-14.4,0.8c-12.3-8.4-23.9-18-34.6-28.8
		c-45.8-45.8-71.1-106.8-71.1-171.5s25.2-125.5,70.8-171.3c0.4,4.6,2,9,3,11.5c0.5,1.2,1.4,2.7,2.4,4.4c4,6.2,10.6,14.5,8.3,14.1
		c-2.8-0.5-6.8,5.2-13.2,11.4c-6.5,6.2-7.3,9.3-6.5,14.3c0.8,4.9-0.3,6.8-3.1,10.7c-5.7,7.7-2.9,12.5,4.2,23.4
		c7,10.9,16.4,8.8,18.2,10.1s-1.6,6,7,15.1c6.9,7.4,13.7,6.5,17.7,5.2c2.2-0.7-3.6,5.5-6.2,8.3c2.1,1,8.8,3.9,15.3,12.7
		c6.5,8.8,19,21.1,20.5,20c1.6-1,4.2-2.8,5.7-4.4c1.6-1.6,3.4-2.1,5.2-1c1.8,1,3.6,3.1,5.5,4.9c1,1,0.8,2.1-0.8,3.4
		c-18.1,14-29.4,25.7-36.5,35.4c-5.8,8-8.9,14.6-10.8,20.1c-4.2,12.2,1,12.1,4.7,10.9c5.4-1.8,10.6,14.3,15.1,18.5
		c-7.7,16.6,13.1,53,22.3,85c5.8,20.3,12.2,35.3,22.9,48.1c-20,8.1-21.8-1-24.1-4.2C252.5,567.1,244.1,566.9,233.5,571.1z
		 M223.3,610.3c-1.8-0.6-5.7-1.3-7.8-0.8c-0.8-5.7-0.2-23.6,2.4-29.4c2.6-5.7,5.2-7.3,8.3-6.2c1.4,0.4,2.1,1.8,3.1,3.6
		s1.4,3.4-0.3,5.2C226.2,585.9,222.8,600.2,223.3,610.3z M279.5,166.5c8,2.1,16.6-3.1,19.5-5.7c2.5-2.2,4.2-1.8,3.9,0
		c-0.2,1.8-1,6.5-6,12.2c-4.9,5.7-9.1,13.5-9.7,18.6c-4.9,1-23.7,3.9-38.6,7.3c-14.2,3.3-9.8-1.7-7.5-8.7c1.2-3.8,2.3-8,1.7-10.5
		c-0.7-1.5-3-3-4.9-3.3c-10.1-1.6-15.8,2.1-20,5.2c-5.2-3.6-3.4,6.5-2.4,13.8c2.5,17.1,8.8,15.6,16.4,13.8
		c7.5-1.8,41.5-6.2,56.4-8.6c0.2,6.4,2.3,11.5,5.3,15.5c7.4,10.1,20.4,13.8,25.4,14.3c7,0.8,5.2,4.7,4.7,6.8
		c-2.8,0-13.2-3.9-19.7-5.7s-9.9,2.1-11.7,6.5c-1.8,4.4-4.4,14.3-1.8,33.3c2.6,19,9.1,16.9,12.7,15.1c10.4-5.2,24.9-11.4,29.1-13.3
		c4.2-1.8,7-5.7,8.8-7.3l-3.4-0.2c-2,1.2-8.3,4.7-13.7,6.6c-0.1,0-0.2,0.1-0.3,0.1c-2.8,0.9-7.9,3.4-12.7,5.7
		c-4.5,2.2-8.8,4.3-10.4,5c-3.4,1.3-8.9-6.5-8.6-19c0.2-12.5,1.3-20,2.6-24.2c1.3-4.2,2.6-6.2,12.2-2.8c9.6,3.4,15.3,3.9,16.9,3.9
		c1.6,0,1.3,1,1.3,1c3.6,7,9,13.1,14.5,15.8c1.6,0.8,1.8,3.7,1.6,8.1c-0.3,0.8-0.3,2.6-0.3,5.7c-6.8,7.8-15.8,21.8-17.4,26.2
		c-1.6,4.4-9.9,17.4-15.1,22.6c-0.8-5.2-26-9.1-29.9-10.1c-2.9-0.7-3.1,4.9-6.5,15.6c-3.4,10.7-10.9,21-17.1,26.8
		c-6.2,5.7-8.8,0.5-11.1-2.3c-2.4-2.9-13-15.9-15.1-18c-2.1-2.1-4.4-3.1-2.1-5.7c2.4-2.6,11.2-14,14.6-18.4
		c3.4-4.4,8.3-13.5,9.6-17.7c1.3-4.2,1.8-4.7,5.2,1c3.4,5.7,13.3,16.3,16.1,16.9c1.3,0.2,3.4,0.8,4.1-0.2c0.3-0.5,0.4-0.9,0.5-1.3
		c-0.1-0.3-0.2-0.5-0.4-0.6c-11.6-7.8-18.9-20.3-22.6-27c-0.5,1-3.1,4.4-5.5,6.8c-3.6-3.9-5.7-26.8-5.7-37.9
		c0-11.2-2.6-15.9-15.3-22.4c-4.9-2.5-8.7-5.9-11.5-9.7c-4.6-6-6.9-12.7-8.2-17.6c-1.9-7.4-2.3-14.1-2.1-17
		c23-18.3,48.9-32.2,76.5-41.1c-5.3,6.2-9.6,12.4-11.3,15.9C272.4,159.8,276.3,165.7,279.5,166.5z M300.1,189.2l-4.9,1.4
		c-3.5-0.1-3.9-2.7-1.6-6.6c2.3-3.9,4.5-7.5,7.7-9.9c0.5,1.7,1.6,3.7,3.1,4.7C302.3,180.9,299.6,183.7,300.1,189.2z M301.8,197.8
		c-1,0.8-2.1-2-6.4-1.3c-4,0.7-36.7,5.7-39.1,6c-7.3,0.8-7.7-0.4-0.9-1.8c6.8-1.4,31.5-5.9,38.8-7.4l6.2-1.4
		C301.4,197.2,302.8,197.1,301.8,197.8z M236.9,204.2c2.3,0-3.4,2.4-6.5,2.9c-3.1,0.5-7.9,2.3-10.4-10.9c-0.8-4.2-0.5-10.7-1-12.2
		c3.4-1.6,8-3.1,12.5-3.1c3.6,0,6,0,5.7,4.2c-0.2,4.2-2.1,9.9-2.4,13.8C234.5,202.6,234.5,204.2,236.9,204.2z M344.9,264.2
		c0.6-2.6-0.5-6.8,2.4-6.8c2.9,0,8.3-0.5,11.9-0.5c-1.6,4.2-3.6,9.3-4.6,11.9s-5.8,1.6-5.4-0.2C349.8,264.7,344.3,267.3,344.9,264.2
		z M353,274.6c4.1,0,6-3.1,6.5-4.2c0.5-1,1.6-1,3.6,0.3c2.1,1.3,14.5,9.1,17.9,11.4c3.4,2.3,3.1,4.4,0.8,6.8
		c-6.1,6.1-38.4,37.7-48.5,46.3c-3.1-8.3-7.3-20-10.4-26.5c3.1-10.6,17.4-28,20-31.7C345.4,273.3,348.8,274.6,353,274.6z
		 M372.4,248.1c2.6-1.6,5.4-3,8.2-4.3c1.3-0.6,2.6-1.1,3.9-1.7c9.7-3.7,19.9-5.5,28.4-5c0.5,4.2-0.5,8.9-1.3,13.3
		c-1.4,7.7-6,22.4-8,27.3c-2.1,5-5.7,10.5-20,0.3c-0.1-0.1-0.2-0.1-0.3-0.2h-0.1c-1.1-0.8-2.2-1.6-3.3-2.2
		c-9.7-6.3-15.4-7.4-18.2-9.8C358.6,263.2,359.1,256.3,372.4,248.1z M284.9,486.6c0.8,2.8-0.8,4.4-2.3,5.7c-1.6,1.3-6.5,6-8.6,7.5
		c-2.1,1.6-2.1-8.9-7.3-17.4c-3.4-5.6-12.7-18.4-19.1-27.5c-3.5-5-6.2-8.9-6.5-9.9c-1.1-2.9-8.9-18.2-12.5-18.2
		c-3.7,0-7-0.3-2.1-10.4c1.7-3.4,3.3-6.6,5.5-10.1c3.9-6.3,9.8-13.4,21.4-23.7c1.3-1.1,2.6-2.3,4.1-3.6
		c11.5-9.8,24.3-22.3,34.8-33.2c9.2-9.7,16.6-18.2,19.5-22.9c5.8-9.1,6.5-12.7,8.6-8c5.5,12.3,8.8,22.8,9.3,28
		c-2.1,6.2-7,19.5-8.3,25.2s-6.5,13-9.3,19.2c-2.9,6.2-15,29.7-19,37.1c-4.2,7.7-9.9,21-10.9,33.3
		C281.1,468.4,284.1,483.7,284.9,486.6z M265.2,349.2c6.5-10.9,10.5-25,12.5-33c0.3-1,1-1,3.6-0.5c9.3,1.9,19,5.7,21.3,5.2
		s4.2,0,4.2,1.6c0,1.6-5,8.6-8.8,13.3c-3.9,4.7-17.7,17.4-25,22.6C269.8,357,267.7,353.3,265.2,349.2z M214.8,168
		c-4.9-12-11.9-20.8-16.6-25.5c-2.5-2.5-1-3.4,1-4.7c22.1-13.8,35.9-11.1,39.8-5.7C234.3,146.2,225.8,158.5,214.8,168z M208.3,173
		c-11.5,8-25.1,13.1-39.8,14.3c2.6-13,7.3-29.4,19.6-40.3c4.4-3.9,4.9-2.6,7.3,0.5C199.7,153.3,203.6,161.6,208.3,173z M188.3,201.6
		c0.8-4.4,0.8-8.6,8-14.5c7.3-6,6.8,5.2,7.5,12.5c2,19.2,18.7,29.1,26,33.3c7.3,4.2,5.2,11.7,6,23.4c1.3,19.5,7.3,29.4,9.1,31.4
		c1.8,2.1,1.8,3.7,0,7c-1.8,3.4-6.2,10.9-16.9,17.2c-10.6,6.2-18.7,2.1-22.6-2.9s-2.3-12.2-0.2-15.3c2.1-3.1,1.8-6.2,0.5-4.4
		c-1.3,1.8-4.9,4.9-9.1,5.2c-8.6,0.5-11.7-3.6-16.7-10.7c-4.9-7-3.1-10.4-1.6-13.5c1.6-3.1,4.2-7,7.5-6c1.2,0.4,0.2,2.4-0.3,4.2
		c-2.8,9.9-0.8,12.5,4.2,17.1c5,4.7,12-1.8,13.3-3.6c1.3-1.8,4.2-1,4.4,1c0.8,6.5,4.4,11.7,7,14.1c10.5,9.5,16.5,2.8,18.3,1.3
		c1.8-1.6,4.3-5.2,2.2-5.4c-2.1-0.3-4.7,1-6.2,1.8c-7.5,3.8-13.4-1.7-16.4-7c-2.7-4.9-2.3-19.2-1-24.9c1.3-5.7-0.2-6.2-1.6-2.6
		c-1.3,3.6-4.2,11.2-11.1,18.7c-7,7.5-10.1,0-10.1-1.6c0-1.6,1.6-3.1,1.8-6c0.3-2.9,2.9-12,4.7-19.8c1.8-7.8,5.4-8.1,9.3-8.6
		s12.7-2.1,18.4-2.1c5.7,0,4.4-2.9,2.1-3.7s-11.7-0.8-14-1s-4.2-2.1-7-4.4c-2.9-2.4-6.5-11.5-9.6-15.6
		C191.1,212,187.5,206,188.3,201.6z M191.1,249.7c-1.1,3.4-2.1,7.8-2.6,9.3c-0.5,1.6-2.8,4.9-5,0.5c-2.1-4.4-2-7.9,1.3-11.2
		c1-1,2.6-3.1,3.6-2.1C189.6,247.3,191.4,248.9,191.1,249.7z M191.4,239.3c2.1-2.8,3.6-2.6,4.9-3.4c1.3-0.8,1.8-3.1,4.4-1.8
		c2.6,1.3,3.1,3.1,2.1,3.6c-2.1,1.1-6.7,1.1-8.3,4.7C193.5,244.7,189.3,242.1,191.4,239.3z M252,620.8c2.7,0.5,6.1,1,10.5,1.3
		c4.4,0.2,11.2,0.9,11.2,0.9s3.4,0.4,3.8-0.7c0.4-1,1.4-1.3,1.7-0.5c0.8,2.4,1,4.5-2.6,4c-3.6-0.5-18.9-1.9-23.4-1.9
		c-1,0-0.7-2.6-2.2-1.6c-1.6,1.1-0.9,3.4-0.9,6s-0.2,4.2-0.1,6c0.1,2.7,1.8,6.5,8.8,6.9s13.6-0.4,15.7-1.8c0.4-0.3,2-3,2.3-3.4
		c1.5,0.1,4.4,3.5,4.3,6c-0.1,2.6,0.1,3.1-4.6,3.1s-24.8-0.2-27.8-0.2c-1.2,0-1.3-0.9-1.5-3.3c-0.1-2.4-0.9-18.6-1.1-19.9
		C245.9,620.4,249.3,620.3,252,620.8z M275.9,635.4l-3.5,0.2c-1.9,0-13.6,0.9-16.1,0s-4.1-3.7-2.3-4.9c2.1-1.4,6.1-0.5,10.1-0.5
		s8.3-0.1,9.3,0.5c0.1,0,0.1,0.1,0.2,0.1c0,0,0.1,0,0.1,0.1h0.1c0.1,0.1,0.3,0.1,0.4,0.2c0.1,0,0.1,0.1,0.2,0.1
		c0.1,0,0.1,0.1,0.2,0.1c0.1,0,0.1,0.1,0.2,0.1c0.1,0.1,0.1,0.1,0.2,0.2c0.1,0.1,0.1,0.1,0.2,0.2c0.3,0.5,0.6,1.3,0.7,2.6v0.1
		C275.9,634.9,275.9,635.1,275.9,635.4z M304.7,626.9c-7.5-2.4-25-10.4-29.9-12.7c-4.9-2.3-13.3-4.9-19.2-4.9
		c-2.4-5-2.1-13.5-0.5-16.7c1.6-3.1,1.6-6.2,2.8-5.4c1.3,0.8,3.1,2.1,3.1,2.1c3.4,2.1,11.4,4.4,25.2-1.3c13.8-5.7,29.1-1.8,31.4,8.1
		c2.3,9.9,2.4,22.6-1.8,28.1C312.2,628.7,308.8,628.3,304.7,626.9z M360.5,477.5c-21.3,10.1-36.4,19.9-43.9,25.7
		c-2.4,1.8-4.2,4.2-8.9-1.3s-11.7-14.3-14.5-14.3c-2.9,0-4.7,1-6.8-12.2c-2.1-13.3,0.5-34.6,14.4-57c5.4-8.6,18.3-32.3,24-49.8
		c4.2-12.6,6.8-20.7,10.1-26.3c1.2-2.1,2.6-3.8,4.2-5.3c4.4-4.2,24.1-22.4,35.3-33.7c3.5-3.5,6.2-6.4,7.2-7.9
		c4.4-6.2,5.7-10.7,10.1-7.8c4.4,2.8,14.2,5.1,20.5-17.7c2.1-7.5,3.6-20,6-25.4c1.8-4.2,2.6-5.2,1.8-6.5s-5.2-7-6.2-7
		s-4.2,0.8-0.5-4.4c1.8-2.6,3.1-3.4,4.2-4.8c1-1.5,3.1-0.5,6.9,1.4c3.8,2,10.7,5.5,13.3,6.8c-4.8,7.7-18.8,33.3-22.5,42.4
		c-3.7,9.1-16.8,41.6-9.9,68.1c0,0.2,0.1,0.4,0.2,0.7c3,10.8,11.7,23.2,21.9,21.7c-0.8,4.5-1.5,9.7-2.1,14.9c-1,9-1.6,18.3-1,25.6
		c1,11.4,2.4,15.8,9.1,27c6.8,11.2,10.4,15.9,10.6,22.6c0.3,6.8-5.3,4.6-12.7,3.9c-5.1-0.5-15,1.5-26.3,4.6c-3.7,1-7.7,2.2-11.6,3.5
		C381.6,468.6,369.5,473.2,360.5,477.5z M414.5,566.9c2.9-12.7,16.1-42.9,19.5-51.2c3.4-8.3,9.9-37.1,11.1-52.2
		c0.1-1.3,1.8-1.6,2.9-9.3c1-7.8-7-20.8-13.8-34.8c-2.9-6.1-4.3-12.7-4.6-19.6c-0.5-9,0.9-18.3,2.8-26.9
		c3.4-15.1,9.3-29.6,12.5-39.5c3.1-9.9,5.5-6.2,6-3.4s0.5,4.4,2.8,11.4c2.4,7,0.3,13.3-2.3,20.3c-2.6,7-7.8,18.9-2.6,28
		c1.4,2.5,3.4,6,5.5,10c5.9,10.8,13.4,25.1,16.8,31.6c0.1,2.8,0.4,6,1,9.4c1.1,6.9,3.3,19.5,7,28.2c2.1,5.2,4.3,5.4,14.9,9
		c0.8,2.8,2.1,6.5,4.7,9.3c-7.3,3.1-8.3,9.6-8.1,14.8c0.3,5.2-0.2,11.1-2.3,17.7c-1.3,4.2-1,9.1,1.6,11.7c2.6,2.6,6,8.1,6.5,12.2
		c1.8,14.3,4.2,11.7,7.8,13.5c2.2,1.1,2.4,3.2,1.5,5.3c-30,23.5-65.6,40.2-104.5,47.6C406.3,597.5,412.3,576.7,414.5,566.9z
		 M480.2,431.3c6.8-1,23.2-8.1,28.1-10.9c7.3-4.2,7.3,3.4,8.8,10.7c1.5,6.9,6.5,23.1,9.3,26.5c-10.1,9.3-24.2,13-32.5,13.3
		c-5.5,0.2-8.3,0.3-10.4-5.2c-2.1-5.5-6-21-7.3-26.2C475,434.1,473.3,432.3,480.2,431.3z M436,160.5c5.4,9.9-5.2,23.6-9.1,27.3
		c-3.9,3.7-7.8,8.8-7.5,11.5c0.7,7-1.3,9.3-5,16.1c-7.1,13.2-17.9,16.9-22.1,17.9s-8,2.1-15.1,5.4c1.1-6.8-0.5-8.6-2.1-6
		c-8.9,14.9-9.3,17.9-23.6,19.7c-14.3,1.8-19-5.7-22.1-12.7c-3.1-7,0.8-3.8,4.4-3.4c4.2,0.5,6-1,2.9-2.6c-3.1-1.6-5.2-3.1-19.2-7.8
		c-14-4.7-21-13.3-23.9-21.6c-2.9-8.3,3.1-4.2,6-2.4c2.9,1.8,12.7,7.5,23.4,13.3c10.7,5.7,13.6,8.1,21.7,6
		c8-2.1,19.3-14.1,23.7-18.5c1.4-1.4,3-3.4,4.2-2.1c3,3.3,5.2,2.1,5.2-2.1c0-6.8-10.9-9.4-17.9-9.9s-12.2-1.3-14.5-3.4
		c-2.4-2.1-6.5-9.6-9.9-9.6c-5.7,0-1,4.2,0.8,6c5.6,5.6,2.8,10.9-5.5,10.1c-8.3-0.8-11.9,1.3-14.5,3.1c-2.6,1.8-9.1,3.9-12.5-1.6
		c-3.4-5.5,0.3-8.3,3.9-10.1c3.7-1.8,10.4-1.6,19-11.7c8.6-10.1,9.3-19.2,6.5-25.7c-2.9-6.5-5.5-3.4-5-2.6c0.5,0.8,3.4,4.4,3.6,10.7
		c0.3,6.2-7,14-8.6,15.6c-1.6,1.6-2,0.8-1.6-1.6c2.1-10.4,0.5-16.6-5.5-19.8c5.7-4.2,30.2-24.7,36.9-29.4c6.7-4.7,13.5-9.1,20.7-9.9
		c2.8,4.7,9,8.3,12.7,7.5c5-1.1,5.9-1,6.5,3.4c0.6,4.2,0.8,9.6,4.3,11.5c5.3,2.9,4.9,3,4,7.3c-0.7,3.3-1.3,4.2-1,8.6
		c0.9,14.8-13.8,34.6-17.9,40c-4.1,5.5-2.8,7.8,1,6.8c3.9-1,15.3,0.5,16.1-0.8c1.5-2.5,4.7-3.6,7.8-2.6c0.2-12.5,5.2-20.5,9.6-27.8
		C421.5,155.6,430.6,150.7,436,160.5z M307.6,201.1c0.1-1,3.4-0.2,6.4-0.1c2.9,0.1,4.9,0.3,5.4-2.2c0.8-3.6,5.2-3.5,9.8-3
		c9,1,13-2.1,14.4-5.3c2.9,2.4,10.4,2.9,13.8,2.9c3.5,0,6.2,0.3,8.8,1.6c3.9,1.8,0.6,4.1-3.5,8.4c-9.9,10.6-15.8,13.9-22.6,14.5
		c-5,0.5-11.3-4.2-15.6-6.1C320.4,209.8,307.5,202.1,307.6,201.1z M312.3,174.2c0.1,2.2-0.7,2-1.4,2c-1.1,0-3.2-0.1-4.6-1.5
		c-1.9-1.8-2.2-6.2,0.1-13.7c2.4-7.5,3.1-8.8,5.2-9.9c2.6-1.4,1,2.1,2.6,1.8c4.6-0.8,6.1,4.7,4.8,5.4
		C312,162.5,312.2,172,312.3,174.2z M387.7,97.9c-18.7,5.2-36,14.1-45.7,23.4c-10.3,10-20.8,17.1-34.3,27
		c-13.5,9.9-17.9,13.5-24.1,12.7c-8.4-1-1.8-5.4,1.3-6.8c11.6-4.8,35.9-24.7,45.5-32.8c9.6-8,32.2-24.7,55.8-30.6
		c23.6-6,37.7-13.3,44.7-21.6c2.8-3.4,4.7-4.2,7.8-1c3.1,3.1,2.8,4.9-0.5,8.6C431,84.5,406.4,92.7,387.7,97.9z M298.5,49.8
		c-6.2,5.2-11.6,11.6-14.1,19.2c-8.8,27,1.3,47,8.9,59.5c-1.3,1.2-2.7,2.4-4,3.7c-20.5,5.7-39.8,14-57.8,24.5
		c10.8-14.6,16.5-32.3,16.5-50.8c0-14-3.3-27.4-9.5-39.5C257.8,59.1,277.9,53.5,298.5,49.8z M157.2,24.6
		c-5.5,10.1-8.4,18.8-8.4,40.6c0,9.6-3,22.1-4.7,26c-0.8,1.8-2.6,2.2-4.4-0.2c-7-9.6-23-26.8-44.2-32.3
		C109.4,39.1,131.8,26,157.2,24.6z M80.3,106c0-15.5,4.4-29.9,11.8-42.2c21.3,5.5,36.8,22.6,43.7,32.3c1.3,1.8,4.4,3.9,1.8,7.3
		c-2.6,3.4-15,25.7-55,22.1C81,119.2,80.3,112.7,80.3,106z M84.8,132.7c8.3,0.5,34.5-2.5,47.6-13.3c17.2-14.1,19.2-30.9,21.5-54.8
		c2.4-23.9,5.9-31,11.6-40.1c43.3,2,77.8,37.7,77.8,81.5c0,6.2-0.7,12.2-2,17.9c-16.9-7-36.9-0.5-51.2,11.9
		c-14.3,12.5-21.6,22.1-26.5,51.7c-0.6,0-1.2,0-1.8,0c-21.2,0-40.4-8.1-54.9-21.3c24.4-6.2,45-17.4,68.1-39.2
		c23.1-21.8,34.6-47.3,37.7-59.2c3.1-12-1.3-5-3.6,0.5c-3.6,8.4-15.6,31.2-39.2,53.2c-23.6,22.1-41.8,33-66.5,41.3
		C95.1,154.4,88.8,144.2,84.8,132.7z M226.2,671.4c-37.2-16.2-71.5-39.3-101.1-68.9c-61.7-61.7-95.6-143.7-95.6-231
		c0-75.3,25.3-146.7,71.8-204.4c16.2,16.1,37.7,25,60.6,25c8.7,0,17.3-1.3,25.4-3.8c-0.7,0.9-1.3,1.8-1.7,2.7
		c-47.9,45.4-77.9,109.5-77.9,180.5c0,66.3,25.8,128.7,72.7,175.6c11,11,22.8,20.8,35.4,29.4c-6.2,11.4-4.8,27.3-3.9,36.1
		c3.4,0.3,8.3,0.8,12.2,1.8c7.3,9.1,11.7,26.5,8.8,34C229.8,656.8,227.7,664.4,226.2,671.4z M277.6,762.1
		c-5.2,0.8-17.1,0.8-24.9-3.4s-20.1-11.8-28-23.1c-1.8-2.6,0-5.4,2.1-3.1c6.5,7.3,18.7,18.5,27.8,22.4c9.1,3.9,15.1,5.2,23.1,4.4
		C284.1,758.6,282.8,761.3,277.6,762.1z M306.6,708c-1.9,0.4-4.2,0.4-6.2-1.6c-2.1-2-13.8-13-16.1-15.2c-2.4-2.2,0.6-2.2,2.7-2.5
		c2.1-0.2,3.9-0.1,6.8-0.4c-1.3,1.2-1.6,3.1,0,4.7c1.6,1.6,10.2,8.8,11.7,10.3c1.4,1.4,3.5,1.9,5.9,1.4
		C313.6,704.3,308.5,707.6,306.6,708z M314.1,697.2c-0.8,0.5-5.3,1.7-7.4,1.8c-2.4-2.1-5.6-5.5-6.2-6.1c-1.3-1.3,6.1-2.8,7.7-2.8
		c1.8,1.2,5.1,4.1,6.3,5.3C315.3,696.2,314.9,696.7,314.1,697.2z M326.7,697.9c-3.1,1.8-6,3.6-5.4,2.1c0.5-1.6,1.3-3.9-0.8-6
		c-2.1-2.1-7.2-6-9.3-7.8c-1.4-1.2-2.7-2.1-2.7-2.1c1.7-0.8,4.1-1.8,5.1-1s7.3,5.2,11.1,8.6C328.5,695,329.8,696.1,326.7,697.9z
		 M326.7,687c-2.9-2.1-6.2-5-2.8-5.2c3.4-0.3-4.2-29.6-6.2-34.8c-2.1-5.2-8.1-11.7-2.1-11.7c3.4,0,9.5,1.4,11.4,7.5
		c1.6,5,11.7,6.2,16.1,6c4.4-0.3,3.6,2.1,3.4,4.7c-0.3,2.6-1,10.4-1,13.5s0.8,14,1.3,16.1s-1.3,3.1-3.6,4.2
		C340.7,688.3,332.2,690.9,326.7,687z M364.6,722.3c-9,5.6-20,9.6-25.7,9.6c0-1.3-0.3-3.4-1.3-8c9.3-2.4,19.1-7.2,24.4-9.6
		c2.8-1.3,3.9,1.6,4.7,3.4C367.5,719.4,366.7,721,364.6,722.3z M511.6,657.6c0.2,0.2,0.4,0.4,0.7,0.6c-43.8,24-93.7,38.2-146.7,39.7
		c-0.3-0.7-0.6-1.3-0.9-1.9c-3.4-6.3-12.9-12-13.7-14.3c-2.1-6.4-0.8-25,0.2-33.3c4.9-1.6,14-4.7,21.8-8.8s18.4-14.3,23.9-21.3
		c0.4-0.5,0.9-1.2,1.3-2c37.5-6.4,72.7-21.2,103.5-43.6c0.8,2.8,3.1,6.7,7.9,12.9c9.9,12.7,9.6,35.3,7.3,48.9
		C514.5,648,509.3,655.3,511.6,657.6z M544.6,660.5c3.4,5.4,2.4,10.1,1.3,14.3c-1,4.2-1.6,32.8-1.3,38.7c0.3,6,0.5,26.8-1.3,23.6
		c-1.8-3.1-4.4-19.5-4.4-22.3c0-2.9,0.3-4.2-0.8-5c-1-0.8-2.6-8.8-4.9-24.2c-2.4-15.3-8.6-22.1-12.5-25.7c-3.9-3.6-2.6-5.7-2.1-8.3
		s5.2-22.1,5.2-36.4c0-14.3-4.4-22.8-7.8-28.6c-3.4-5.7-9.1-11.2-9.6-13.3s3.9-6.8,3.9-11.2s3.1-9.3,4.9-12.5l2.4-13.3
		c0-3.1-0.5-7.8-1.8-10.9l8.1-16.1c0,0,5.4,1,6.8,1.5c1.3,0.5,1.8,1.8,0.8,6.5c-2,9.2-0.8,15.1,1.6,19.5c2.4,4.4,9.4,4.2,4.2,11.2
		s-4.7,12.7-4.2,19.7s5.5,8.1,5.7,14.3c0.1,3.4-2.3,11.4,0.8,14.8c3.1,3.4,7.3,7.5,9.6,13.5c2.4,6-5.2,5.7-9.8,20.8
		C534.7,646.2,540.9,655.3,544.6,660.5z M545.4,637.4c1.2-8.1,4.3-15.9,6.2-18.8c3.1-4.7,3.4-11.9-3.7-17.9c-7-6-6.5-7.5-5.2-12.7
		s-2.6-12.2-6-21.6c-3.4-9.3,1.8-11.7,3.4-14c1.6-2.4,7.8-11.4,9.6-13.3c1.8-1.8,2.1-3.6,4.4-0.2c2.3,3.4,7.8,3.6,10.1,1.5
		c6.2-5.5,18.5-23.9,20-27.5c1.6-3.6,1.8-9.3,1.3-14.5c-1-10-3.9-17.5-6.1-18.6c16.1-33.3,24.7-70.1,24.7-108.2
		c0-66.4-25.8-128.7-72.7-175.7c-29.1-29-64.1-50-102.2-61.8c0-0.2,0-0.4,0-0.6c-1.1-20.3-7-29.9-9.3-33.8c-2.4-3.9-4.2-5.7-2.1-6.8
		c2.1-1,9.1-3.9,18.7-9.9c9.6-6,9.6-12.2,6-17.2c-3.6-5-9.3-6.2-13.5,0.5c-4.2,6.8-11.9,9.1-22.1,13.5c-0.5-8.2-1.4-21-7.1-32.2
		c70.6,9.5,135.8,41.5,187,92.7c61.7,61.7,95.6,143.7,95.6,231C682.5,481,628.4,578.1,545.4,637.4z M374.7,175.1
		c-4.7,0.1-11.8-1.5-16.8-4.8c-4.9-3.4-6.7-5.2-5.8-10.4c0.9-5.2,1.1-6.3,1.3-7.7c0.7-3.6,0.1-6.6-5.2-2.3c-5-3.7-9.3-8.1-10.9-9.1
		c-1.6-1-2.4-2.6-0.5-4.4c1.8-1.8,5.1,1.4,4.3-4c-0.3-1.8,4-0.7,5.1-1.2c1-0.5-0.5-3,4.4-1.8c1.5,0.4,0.9-2.6,4-2.1
		c3.1,0.5,4.6,1.7,5.3-0.8c0.6-2.5,1.4-4,5.3-1.6c2.7,1.7,3.8,0.7,4.1-0.7c0.2-1.3,2.7-0.5,4.9,0.8s7.7,4,14.2,11.6
		c1.6,1.8,2.4,3.8,1.3,4c-1,0.3-2.2,0-2.5,2.1c-0.2,2.1-1.3,3.9-2.5,1.6c-1.2-2.3-1.4,0.4-2.3-2.1c-0.9-2.5-2.1,0.9-2.7-0.8
		c-0.9-2.2-1.6,0.3-2.5-1.6c-0.4-0.9-2.9,1.1-3.7-0.3s-2.5,1.6-3.7-0.1c-1.3-1.7-1.3,1.8-3.4,1c-2.1-0.8-1.2,2-3.3,1
		c-2.1-0.9-1.4,2.6-3.4,2.1c-1.9-0.5-1.8,0.4-2.2,2.6c-0.4,2.2-1.3,10.8-1.2,12.9s4.4,1.6,10.9,0.7c6.5-0.9,18.1-4.5,23.9-9.4
		c2.3-1.9,4.4-1.8,4.8-1.1c0.4,0.7-0.7,2.7-2.4,4.2c-1.7,1.4-6.1,6-16.1,7.9c-10,1.9-18.3,3.5-20,3.1c-1.7-0.4,0.7,2.5,3.6,1.8
		c1.6-0.3,5,5.9,10.4,5.9c4.4,0,11-4.9,12.9-6.4c1.8-1.4,8.4-4.4,4,0C384.1,170.2,379.4,175,374.7,175.1z M426.2,162.6
		c3.4-1.6,9.1,1.6,2.8,6c-3,2.1-4.7,2.8-4.9,6.5c-0.3,3.6-1,9.8-2.4,10.4c-1.8,0.7-1.5-3.4-2.1-2.1c-0.8,1.8-3,1-3.6-0.7
		c-0.3-0.7-6.8-0.7-1.6-8.2C419.2,167.7,422.8,164.2,426.2,162.6z"/>
</g>
</svg>
