<?xml version="1.0" encoding="UTF-8"?>
<!DOCTYPE svg PUBLIC "-//W3C//DTD SVG 1.1//EN" "http://www.w3.org/Graphics/SVG/1.1/DTD/svg11.dtd">
<!-- Creator: CorelDRAW X5 -->
<svg xmlns="http://www.w3.org/2000/svg" xml:space="preserve" width="25.339mm" height="31.4476mm" style="shape-rendering:geometricPrecision; text-rendering:geometricPrecision; image-rendering:optimizeQuality; fill-rule:evenodd; clip-rule:evenodd"
viewBox="0 0 2534 3145"
 xmlns:xlink="http://www.w3.org/1999/xlink"
 xmlns:svg="http://www.w3.org/2000/svg">
 <defs>
  <style type="text/css">
   <![CDATA[
    .fil1 {fill:#00471B;fill-rule:nonzero}
    .fil0 {fill:#EEE1C6;fill-rule:nonzero}
    .fil2 {fill:white;fill-rule:nonzero}
   ]]>
  </style>
 </defs>
 <g id="Layer_x0020_1">
  <metadata id="CorelCorpID_0Corel-Layer"/>
 </g>
 <g id="svg2">
  <metadata id="CorelCorpID_1Corel-Layer"/>
  <path class="fil0" d="M1269 3145c-700,0 -1269,-569 -1269,-1269 0,-342 135,-663 379,-904 2,-2 4,-3 6,-5 -84,-127 -131,-276 -96,-456 66,-332 334,-432 345,-436 4,-2 9,-3 13,-3 14,0 28,8 35,21 4,8 5,17 3,26 88,-74 171,-106 206,-117 4,-1 8,-2 12,-2 15,0 30,9 36,23 8,18 2,39 -16,50 -80,48 -150,114 -202,189 64,-15 105,-17 120,-17 5,0 8,0 8,0 19,1 35,17 37,36 2,19 -10,37 -30,42 -1,0 -106,27 -222,110 -22,67 -33,137 -33,207 0,134 43,272 117,378 17,24 34,46 52,65 -7,-138 34,-352 283,-452 4,-2 10,-3 15,-3 15,0 28,8 35,22 10,18 3,40 -15,51l-2 1c-37,24 -70,56 -94,92 26,-8 49,-10 64,-12l3 0c2,0 3,0 4,0 17,0 31,10 37,26 6,17 -1,37 -16,46 0,0 -3,2 -3,2 -79,46 -124,99 -131,158 -9,64 27,125 52,160 67,-77 110,-209 122,-258 4,-17 20,-30 38,-30 2,0 3,0 4,0 20,3 35,19 35,38 1,163 -43,274 -87,345 67,33 131,36 146,36 2,0 3,0 4,0 1,0 1,0 2,0 0,0 1,0 3,0 14,0 79,-2 146,-36 -44,-71 -88,-183 -87,-345 0,-20 15,-37 35,-38 2,0 3,0 4,0 17,0 34,12 38,30 12,50 56,181 122,258 26,-35 61,-96 52,-160 -8,-59 -52,-113 -131,-158 -1,0 -3,-2 -3,-2 -16,-10 -23,-30 -17,-46 5,-16 20,-26 37,-26 2,0 3,0 4,0l3 0c16,2 37,4 64,12 -24,-37 -57,-68 -94,-92l-2 -1c-17,-10 -23,-33 -15,-51 7,-14 21,-22 35,-22 5,0 10,1 15,3 248,99 289,313 283,452 18,-19 35,-41 52,-65 75,-106 117,-244 117,-378 0,-70 -11,-140 -33,-207 -117,-84 -220,-110 -222,-110 -19,-4 -31,-23 -30,-42 2,-19 17,-35 37,-36 0,0 3,0 8,0 15,0 57,2 120,17 -53,-76 -123,-141 -202,-189 -17,-10 -23,-31 -16,-50 6,-14 21,-23 36,-23 4,0 8,1 12,2 35,11 118,44 206,117 -2,-9 -1,-17 4,-26 7,-13 20,-21 35,-21 4,0 9,1 13,3 11,4 279,104 345,436 36,180 -11,329 -96,456 3,2 4,3 6,5 245,241 379,562 379,904 3,700 -566,1269 -1265,1269z"/>
  <path class="fil1" d="M2131 1000l-27 33c218,215 352,513 352,843 0,655 -532,1187 -1187,1187 -655,0 -1187,-532 -1187,-1187 0,-330 135,-628 352,-843l-27 -33c-226,224 -367,533 -367,876 0,678 552,1230 1230,1230 678,0 1230,-552 1230,-1230 0,-343 -140,-653 -367,-876zm-1636 92c-199,199 -327,481 -327,784 0,70 7,138 19,205l332 -90c55,362 368,640 745,640 379,0 692,-280 746,-644l340 94c12,-66 19,-135 19,-205 0,-304 -126,-581 -325,-781l30 -31c210,207 339,494 339,812 0,631 -513,1143 -1143,1143 -631,0 -1143,-513 -1143,-1143 0,-318 131,-606 340,-814l30 30zm-167 -573c63,-313 320,-406 320,-406 -94,70 -191,201 -231,385 39,-48 75,-84 117,-113 104,-225 283,-317 371,-345 -113,69 -208,171 -266,288 131,-47 211,-43 211,-43 0,0 -117,29 -245,124 -25,72 -39,151 -39,231 0,143 46,289 125,400 44,63 88,106 141,146 -17,-44 -85,-388 240,-519l-3 2c-77,50 -133,127 -157,218 59,-57 122,-63 155,-67 -1,0 -1,1 -2,1 -302,174 -62,410 -62,410 95,-80 151,-258 163,-307 1,189 -62,302 -104,357 97,67 206,63 206,63l0 0 0 0c0,0 109,4 206,-63 -43,-55 -105,-168 -104,-357 12,49 68,227 163,307 0,0 240,-236 -62,-410 -1,0 -1,-1 -2,-1 33,4 96,10 155,67 -23,-91 -79,-169 -157,-218l-3 -2c325,131 258,474 240,519 53,-40 97,-84 141,-146 79,-112 125,-258 125,-400 0,-81 -14,-158 -39,-231 -128,-95 -245,-124 -245,-124 0,0 79,-4 211,43 -57,-117 -152,-219 -266,-288 88,28 265,119 371,345 43,29 78,65 117,113 -40,-184 -136,-315 -231,-385 0,0 258,93 320,406 73,365 -218,593 -454,788l179 -73c12,-5 21,7 18,21l-5 44c-3,24 -21,148 -89,185 -15,8 -40,17 -114,23l-135 9 23 76 -132 211 68 -71 138 492 -379 312 118 -537 -175 215 -177 -215 118 537 -379 -312 138 -492 68 71 -132 -211 23 -76 -135 -9c-75,-5 -100,-15 -114,-23 -68,-37 -86,-161 -89,-185l-5 -44c-3,-14 6,-26 18,-21l179 73c-236,-196 -527,-424 -454,-788zm1700 392c0,0 149,-235 47,-366 -10,-13 -22,-26 -33,-37 43,150 -14,404 -14,404zm-1519 0c0,0 -56,-254 -15,-404 -11,12 -23,24 -33,37 -101,131 48,366 48,366z"/>
  <path class="fil2" d="M878 2611l8 -12 1 -1 -113 -72 -1 1 -143 224 35 22 63 -98 44 28 -63 98 35 22 121 -189 14 -22zm-84 56l-44 -28 35 -55 44 28 -35 55zm-41 -156l-204 173 -28 -28 50 -74 -73 50 -28 -28 171 -206 28 27 -69 87 94 -63 10 10 -62 95 86 -70 25 27zm-201 -247l-237 124 -19 -37 237 -124 19 37zm-37 -71l-252 87 -13 -39 158 -55 -73 -3 57 -47 -159 55 -13 -39 252 -87 13 39 -57 47 73 3 14 39zm-103 271l50 71 -35 25 -75 -104 217 -156 24 34 -182 130zm620 195l-96 248 -27 -10 -71 -27 -29 -11 97 -247 38 15 -80 208 49 18 80 -208 39 15zm1095 -179l24 18 -65 82 -18 23 -184 -147 -24 -19 84 -104 23 19 40 31 -25 32 -30 -24 -32 41 141 112 32 -41 -30 -24 25 -32 39 33zm-44 -183l170 23 -20 38 -124 -16 103 55 -19 37 -236 -125 19 -37 65 35 -49 -66 21 -38 70 95zm236 -164l-38 129 -29 -9 -43 -13 12 -39 30 10 15 -50 -70 -21 -27 89 -29 -9 -114 -34 9 -28 30 -100 29 9 42 13 -12 39 -30 -9 -15 50 61 18 27 -89 29 9 95 29 29 6zm-481 327l171 203 -22 18 -58 49 -24 20 -170 -204 31 -27 144 171 40 -33 -145 -170 32 -26zm-304 421l8 42 -126 24 -51 -260 126 -24 8 42 -85 17 12 63 85 -17 8 41 -85 17 15 73 86 -17zm-195 31l1 43 -128 2 -4 -265 128 -2 1 43 -87 2 1 64 87 -2 1 42 -87 2 1 75 87 -3zm418 -223l4 -26 -41 -75 -38 -10 -92 50 126 233 92 -50 11 -39 -39 -72 -24 -10zm-111 -44l46 -24 30 57 -46 24 -30 -57zm85 158l-36 -65 46 -24 36 65 -46 24zm-551 -118l-69 96 31 168 -43 -8 -24 -122 -20 115 -41 -7 46 -263 41 7 -13 73 48 -67 43 8z"/>
  <path class="fil2" d="M1145 1508c-19,-9 -56,-25 -91,-42 -7,-3 -16,1 -17,9 -3,16 -3,40 19,57 40,31 75,14 93,-4 5,-6 3,-16 -4,-19z"/>
  <path class="fil2" d="M648 1298c0,0 13,111 59,136 31,17 107,16 174,21 -74,-29 -183,-107 -233,-157l0 0z"/>
  <polygon class="fil2" points="1192,1957 1229,2007 1309,2007 1345,1957 "/>
  <path class="fil2" d="M1889 1298c-51,50 -159,128 -233,157 66,-5 143,-3 174,-21 46,-25 59,-136 59,-136l0 0z"/>
  <path class="fil2" d="M1345 1666l-36 -117 -41 20 -41 -20 -36 117c0,0 -12,46 -63,78l-22 96 53 72 57 0 -52 -77 9 -48c23,25 57,42 95,42 37,0 71,-16 95,-42l9 48 -52 77 57 0 53 -72 -22 -96c-50,-32 -63,-78 -63,-78z"/>
  <path class="fil2" d="M1484 1465c-37,17 -72,33 -91,42 -8,3 -10,14 -3,19 18,18 52,36 93,4 22,-17 22,-41 19,-57 -2,-7 -10,-12 -17,-9z"/>
 </g>
</svg>
